<?xml version="1.0" encoding="UTF-8"?>
<svg id="Layer_1" data-name="Layer 1" xmlns="http://www.w3.org/2000/svg" viewBox="0 0 1024 1024">
  <defs>
    <style>
      .cls-1 {
        opacity: .51;
      }

      .cls-2 {
        opacity: .55;
      }
    </style>
  </defs>
  <path d="m532.26,359.17c-.54,15.65-3.45,99.88-3.73,112.35-.03,1.14-.24,2.28-.75,3.3-3.26,6.51-12.58,5.48-19.49,5.48s-16.23,1.03-19.49-5.48c-.51-1.02-.73-2.16-.75-3.3-.28-12.47-3.19-96.7-3.73-112.35-.06-1.6.56-3.14,1.69-4.27l19.31-19.26c1.64-1.64,4.31-1.64,5.95,0l19.31,19.26c1.13,1.13,1.74,2.67,1.69,4.27Z"/>
  <path d="m481.72,167.16s-6.46,35.63-32.79,63.82c-29.4,31.47-22.05,46.92-13.82,58.61,12.61,17.91,32.41,37,40.38,56.12.54,1.31.65,2.75-.11,3.94h0c-1.42,2.2-4.58,2.35-6.19.29-6.99-8.97-12.15-16.5-35.71-30.64s-36.75-43.53-22.74-67.97c19.56-34.11,38.88-29.46,70.98-84.17Z"/>
  <path d="m422.36,186.95c0,.78-.11,1.54-.3,2.26,0,0,0,.02,0,.03-1.92,8.93-12.01,18.38-18.12,24.22-27.44,24.6-60,42.77-93.66,57.39-43.34,17.75-87.41,33.63-130.23,52.61-18.36,7.79-36.13,17.51-51.37,30.44-21.98,18.44-38.32,45.38-37.36,74.67.49,16.94,7.34,36.56,22.55,45.37.93.54.33,1.98-.72,1.71-8.59-2.18-16.19-8.02-21.61-14.97-21.25-27.63-15.51-67.93,4.02-94.92,15.84-22.73,39.2-38.78,64.12-49.9,14.48-6.28,29.47-11.45,44.32-16.73,39.18-14.04,79.37-25.04,117.61-41.42,27.17-11.85,71.92-35.88,91.32-60.3.97-1.22.73-3.02-.58-3.86-2.04-1.3-3.41-3.77-3.41-6.6,0-4.19,3.01-7.58,6.72-7.58s6.71,3.4,6.71,7.58Z"/>
  <path d="m453.74,404.9h0c8.82-21.35,6.93-43.59-9.39-58.35-8.54-7.73-23.21-14.66-29.7-17.92-6.48-3.25-9.92-5-14.73-8.35-5.04-3.34-6.74-4.54-12.23-2.31-.37.15-.75-.18-.66-.56.96-4.06,4.77-20.28,6.36-27.04.13-.54.91-.48.96.07,1.71,18.1,5.36,21.54,9.1,25.21,3.67,3.52,8.29,6.53,13.76,9.42s20.67,11.12,28.2,16.9c11.8,9.05,18.34,29.9,14.27,47.36-1.28,5.48-3.13,10.76-5.94,15.57Z"/>
  <path d="m389.51,259.67c-23.03,75.05-109.62,11.85-190.59,72.58-6.8,4.68-4.06,7.65,2.37,8.97,2.98,1.08,24.87,6.28,31.56,13.63,19.15,14.22,19.91,55.72-7.25,78.23-8.31,6.89-15.45,10.07-27.3,11.15,37.1-.19,57.15-40.54,54.02-72.34-.16-1.6-.27-3.2-.37-4.81-.08-1.26-.23-2.74-.48-4.42-.76-5.08-2.69-13.03-7.52-22.08-1.36-2.54-1.21-5.2.45-7.91,2.25-3.69,7.23-7.47,14.79-11.24,6.52-3.25,15.02-6.49,24.58-9.37,8.81-2.65,18.22-4.89,26.54-6.42,4.99-.91,10.03-1.45,15.1-1.64,16.18-.59,29.2-.34,34.02-.42,5.81.78,11.56,2.7,11.24,9.49-.31,6.78-3.38,14.16-9.78,13.88-5.5-.24-5.93-4.95-5.85-7.03.02-.62-.31-1.19-.86-1.48-3.97-.98-2.21,5.08-1.28,7.13,1.75,3.52,10.68,8.42,18.24-.57,6.42-7.63,3.51-14.84,9.43-29.93,5.4-13.76,8.38-26.62,9.95-35.17.12-.64-.81-.86-1-.24Zm-105.89,51.89c-9.59,2.88-18.11,6.14-24.66,9.4-7.65,3.82-12.7,7.67-15,11.44-1.75,2.87-1.91,5.7-.46,8.42,4.8,8.98,6.71,16.87,7.47,21.9,0,0,0,.02,0,.02.02.16-.2.2-.24.05-3.14-12.02-10.19-21.85-21.56-26.24-2.9-1.12-3.17-4.55-1.15-7.14,13.01-16.66,50.83-22.58,82.9-24.67.17-.01.2.24.03.27-8.52,1.53-18.24,3.83-27.33,6.56Z"/>
  <g>
    <path d="m156.4,453.53h0s.04.03,0,0Zm255.93-84.94h0c-1.49-1.58-3.03-3.08-4.6-4.47l-.34.38c35.01,29.46,18.72,90.18-27.54,91.37-14.9-.11-30.52-7.21-37.69-20.45-.47-.91.3-1.96,1.31-1.78,3.78.78,7.42-2.32,7.31-6.17-.07-3.26-2.81-6-6.07-6.05-3.41-.05-6.22,2.68-6.26,6.08.02,1.89.51,3.52,1.37,5.72,6.93,14.9,23.72,23.44,40.04,23.5,43.25-.05,63.11-57.76,32.49-88.13Z"/>
    <path d="m309.01,365.7c-3.4,2.71-7.5,4.66-12.08,6.79h0c-12.38,5.67-21.8,10.94-32.21,23.4-3.05,3.68-5.86,7.48-8.55,11.67-4.47,6.92-8.6,14.91-12.98,25.23-9.61,22.84-57.18,36.11-84.13,21.27-13.48-7.33-20.54-20.46-22.09-34.54l-.62.06c1.96,17.82,10.73,30.45,25.87,36.85,6.49,2.82,13.39,4.37,20.44,4.77h0c19.85,1.55,43.52-8.17,64.08-19.04,15.66-7.44,27.77-16.65,39.56-32.64,13.67-18.34,15.51-32.59,24.74-40.75,29.29-25.85,71.66-26.08,96.35-4.29l.34-.38c-28.85-25.74-72.98-19-98.7,1.58Zm-63.49,73.94s0,0-.02,0c-1.34.56-2.64-.87-1.98-2.16,3.15-6.83,6.52-13.77,10.27-20.48.24-.41.87-.21.82.26-.07.69-.11,1.38-.16,2.08-.13,1.88-.27,3.83-.78,6.06-1.41,6.14-3.97,10.19-5.83,12.49-.62.76-1.42,1.36-2.32,1.74Zm18.11-11.04c-4.16,3.21-8.6,6.2-12.96,8.56-.48.25-.98-.29-.67-.75,1.63-2.46,3.39-6.01,4.49-10.81.53-2.29.67-4.27.8-6.19,0-.11.02-.22.03-.33.26-3.65,1.41-7.19,3.38-10.27,5.82-9.14,12.57-17.51,20.78-24.18.43-.35,1.03.17.74.64-2.4,3.85-4.91,9.08-5.33,14.57-.19,2.42-.19,4.53-.2,6.39v.17c-.05,8.71-4.15,16.89-11.06,22.2Zm29.67-40.97c.13,4.23-1.06,8.39-3.29,11.98-2.41,3.89-4.69,7.32-6.64,9.96-1.82,2.46-4.78,5.75-8.44,9.28-.56.55-1.47-.07-1.17-.8,1.73-4.3,1.75-7.64,1.78-11.82,0-1.85.02-3.94.2-6.33.31-4.19,1.89-8.23,3.68-11.59,2.55-4.77,6.51-8.64,11.28-11.18.94-.5,1.9-.98,2.87-1.44.42-.19.83.24.66.66-1.26,3-1.12,6.68-.98,10.06l.04,1.09v.12Zm9.53-11.11c-2.55,5.09-5.3,10.25-8.06,15.05-.23.4-.84.19-.78-.27.13-1.17.2-2.44.15-3.82l-.04-1.1c-.18-4.4-.36-8.92,2.29-11.93h0c1.05-.43,2.1-.83,3.18-1.21,2.09-1.01,4.29,1.2,3.25,3.27Z"/>
    <path d="m181.76,372.92c-4.56-.01-6.99-4.35-5.68-7.79.47-1.24-.53-2.55-1.83-2.32-25.9,4.57-39.99,32.11-37.28,56.72l-.62.06c-.29-2.54-.43-5.17-.44-7.92,0-27.77,20.64-50.37,46.01-50.37v.09c7.91.45,7.77,11.25-.15,11.53Z"/>
  </g>
  <path d="m367.6,476.38c0,.76-.39,1.42-.97,1.82-.35.23-.76.36-1.21.36-.55.08-1.1.13-1.64.19-.26.03-.52.05-.78.07-18.6,1.56-34.27-7.99-46.1-22.72-4.01-4.93-7.87-11.34-11.26-17.93-2.65-5.17-9.45-6.46-13.76-2.56-1.64,1.5-3.2,2.86-4.44,3.91-35.05,29.83-68.14,37.36-98.62,39.51-5.83.41-18.43.82-24.6.75-1.45-.02-2.82-.06-4.06-.14-1.46,0-2.63-1.23-2.54-2.71.08-1.27,1.11-2.3,2.37-2.38,1.48-.09,2.71,1.08,2.71,2.54,0,.44-.11.86-.31,1.21-.25.44.06.98.57,1,1.05.03,2.32.05,2.92.04,7.45-.13,17.06-.71,22.89-1.21,36.3-3.09,67.41-13.12,98.3-43.45,5.48-5.18,10.61-10.93,15.84-17.63.78-1,2.36-.57,2.54.67.56,3.93,1.41,8,2.12,10.56,5.64,20.49,16.58,38.88,37.69,47.4,5.51,2.16,10.24,2.97,15.73,3,.32,0,1.19-.04,2.01-.09.57-.03.86-.68.53-1.15,0,0,0-.01,0-.02-.17-.31-.27-.66-.27-1.04,0-1.21.99-2.19,2.19-2.19s2.18.98,2.18,2.19Z"/>
  <path d="m480.99,380.92v61.83l-1.61-25.14s-.92-6.57-4.73-5.65c-3.81.92-8.99,7.11-8.99,7.11l-39.21,42.3s-3.23,3.52-2.5,6.86c1.49,6.8,9.41,5.19,40.78,6.8.58.03-49.23.01-67.92,0-.03,0-.06,0-.09,0-.39-.02-.69-.34-.69-.73,0-.02,0-.04,0-.05.02-.32.27-.57.59-.64.05-.01.1-.02.15-.03h0c5.3-1.15,14.53-2.03,22.53-9.05,19.98-17.55,49.18-51.95,51.43-56.23,1.72-3.29,7.11-9.88,9.46-27.42,0-.02,0-.03,0-.05,0,0,0,0,0,0,.04-.18.2-.32.4-.32.22,0,.4.18.4.4Z"/>
  <path d="m201.25,603.61c-.87.03-1.75.04-2.66.04,1.53-.01,2.47-.03,2.66-.04Z"/>
  <path class="cls-1" d="m458.1,740.18s-.56,1.18-1.38,2.88c.5-.95.96-1.91,1.38-2.88h0Z"/>
  <path class="cls-2" d="m315.62,726.39c.67.58,1.37,1.17,2.09,1.75-.06-.04-.85-.65-2.09-1.75Z"/>
  <polygon class="cls-2" points="324.89 698.01 324.89 698.01 324.89 698 324.89 698.01"/>
  <path d="m324.89,698h0s0,.01,0,.01h0Z"/>
  <polygon points="324.89 698.01 324.89 698.01 324.89 698 324.89 698.01"/>
  <path d="m162.59,644.1c0,.2-.12.72-.22,1.11,0,0,0,0,0,0-.05.21-.09.38-.1.43,0,0,0,0,0,.01-.3,1.15-.83,2.29-1.57,3.36-2.86,4.11-7.94,5.53-11.33,3.16s-3.83-7.62-.96-11.73c1.65-2.37,4.03-3.84,6.41-4.21,3.29-.51,5.49-3.67,4.8-6.93-.37-1.75-1.06-3.42-2.12-4.92-1.25-1.77-2.98-3.19-4.91-4.16-5.19-2.52-10.9-4.31-16.68-4.4-.02,0-.04,0-.07,0-2.85-.05-4.79,2.9-3.62,5.5,2.25,4.99,3.01,10.63,2.07,16.1-1.41,9.28-6.96,16.75-16.07,19.59-3.15.99-6.42,1.35-9.69,1.12-1.52-.16-3.01-.51-4.45-.99-3.98-1.3-7.1-3.16-9.92-8.26-.04-.06-.07-.13-.1-.19,0,0,0,0,0,0-.16-.3-.28-.63-.37-.97h0c-.11-.4-.16-.83-.16-1.26,0-2.43,1.74-4.41,3.88-4.41s3.88,1.97,3.88,4.41c0,1.82-.98,3.39-2.37,4.06,0,0,0,0-.01,0-.7.33-.83,1.27-.23,1.76,2.63,2.16,6.4,2.93,9.76,2.99.06,0,.19,0,.25,0,.03,0,0,0,.01,0l.31-.02c5.92-.4,11.85-2.92,15.5-7.6,2.48-3.13,3.74-7.05,4.13-11,.77-6.66-1.36-13.32-5.97-18.13-.34-.36-.7-.7-1.07-1.04-1.49-1.37-3.17-2.56-4.97-3.51-1.96-1.03-4.07-1.76-6.26-2.11-5.01-.7-10.26.45-14.66,2.91-5.6,3.09-9.36,8.56-10.57,14.86-.48,2.4-.7,4.87-.54,7.31.24,4.07,1.67,8.05,4.07,11.36,3.25,4.53,8.08,8.01,13.19,10.46.27.13.74.34,1.26.57.29.13.15.57-.16.5-6.35-1.43-12.67-4.54-17.01-9.32-3.99-4.34-6.2-10.09-6.41-15.96-.25-5.91,1.04-11.95,4.28-16.97,5.31-8.33,15.41-13.07,25.21-12.55.08,0,.16,0,.24.01.53.03,1.05.08,1.57.14,1.05.13,2.1.25,3.16.35,3.26.31,6.1.65,8.07,1.17,2.37.62,5.15,1.31,7.1,2.06,2.23.84,4.49,1.72,6.69,2.63,6.13,2.6,11.43,5.36,17.13,8.35.68.39,1.68,1.01,2.31,1.49,1.15.88,2.19,1.92,3.07,3.08,4.25,5.72,4.55,12.9,4.23,19.76Z"/>
  <path d="m162.37,645.22c-.03.14-.07.29-.1.43.01-.05.06-.22.1-.43Z"/>
  <path d="m189.41,689.62h-.07c-.08,0-.15-.01-.23-.02.1,0,.2.02.3.02Z"/>
  <path d="m310.86,761.93c-.18-.02-.36-.03-.53-.04.18,0,.35.02.53.04Z"/>
  <path d="m325.13,775.42c-.14,4.46-1.98,8.97-5.45,11.86-5.99,4.9-14.47,3.83-21.4,1.81-7.14-2.14-13.56-6.31-18.78-11.59-4.19-4.23-8.04-9.62-10.96-14.46s-5.61-10.3-8.99-18.37c-3.38-8.07-9.76-20.91-13.45-29.14s-9.84-19.22-13.76-24.52-12.81-17.27-27.01-25.41c-.94-.53-1.89-1.07-2.87-1.53-1.65-.73-3.39-1.22-5.15-1.63-9.28-2.15-23.35-1.87-24.1,10.48-.45,6.32,2.48,11.33,8.15,14.11.53.27,1.08.51,1.63.73.92.37,1.91-.42,1.73-1.4-.03-.17-.05-.34-.05-.51,0-2.09,2.25-3.78,5.04-3.78s5.03,1.69,5.03,3.78-2.25,3.79-5.03,3.79c-.1,0-.2,0-.3,0-.1,0-.2-.01-.3-.02-.17-.02-.34-.04-.51-.07-5.55-.76-11.06-3.01-14.02-8.01-1.53-2.59-2.06-5.67-1.89-8.64.14-2.99,1.22-6.04,3.42-8.14,5.34-5.06,14.66-4.64,21.41-3.32,2.19.46,4.82,1.35,6.43,2.05,15.54,6.77,27,18.54,32.45,26.38,5.46,7.84,9.15,13.91,13.76,24.37,4.61,10.45,10.15,23.29,12.61,29.6,2.46,6.3,6.21,15.7,6.62,16.68,6.76,15.3,20.42,28.26,37.66,29.64,4.3.34,8.92-.41,12.32-3.23,3.38-2.78,5.19-7.18,5.32-11.51.16-5.98-4.12-10.09-9.39-11.97,0,0,0,0-.01,0-.44-.16-.84.32-.6.73.26.46.41.97.41,1.5,0,2.09-2.25,3.79-5.04,3.79s-5.03-1.69-5.03-3.79,2.25-3.79,5.03-3.79c.08,0,.16,0,.24,0,0,0,0,0,.01,0,.17,0,.35.02.53.04,2.29.22,5.28,1.13,7.67,2.51,3.98,2.21,6.77,6.34,6.6,10.98Z"/>
  <path d="m189.11,689.6c-.17-.02-.35-.04-.51-.07.17.02.34.05.51.07Z"/>
  <path d="m396.81,475.04s-.03,0-.04,0-.03,0-.04,0c.03,0,.06,0,.09,0Z"/>
  <path d="m534.85,167.16s6.46,35.63,32.79,63.82c29.4,31.47,22.05,46.92,13.82,58.61-12.61,17.91-32.41,37-40.38,56.12-.54,1.31-.65,2.75.11,3.94h0c1.42,2.2,4.58,2.35,6.19.29,6.99-8.97,12.15-16.5,35.71-30.64,23.56-14.13,36.75-43.53,22.74-67.97-19.56-34.11-38.88-29.46-70.98-84.17Z"/>
  <path d="m594.21,186.95c0,.78.11,1.54.3,2.26,0,0,0,.02,0,.03,1.92,8.93,12.01,18.38,18.12,24.22,27.44,24.6,60,42.77,93.66,57.39,43.34,17.75,87.41,33.63,130.23,52.61,18.36,7.79,36.13,17.51,51.37,30.44,21.98,18.44,38.32,45.38,37.36,74.67-.49,16.94-7.34,36.56-22.55,45.37-.93.54-.33,1.98.72,1.71,8.59-2.18,16.19-8.02,21.61-14.97,21.25-27.63,15.51-67.93-4.02-94.92-15.84-22.73-39.2-38.78-64.12-49.9-14.48-6.28-29.47-11.45-44.32-16.73-39.18-14.04-79.37-25.04-117.61-41.42-27.17-11.85-71.92-35.88-91.32-60.3-.97-1.22-.73-3.02.58-3.86,2.04-1.3,3.41-3.77,3.41-6.6,0-4.19-3.01-7.58-6.72-7.58s-6.71,3.4-6.71,7.58Z"/>
  <path d="m562.83,404.9h0c-8.82-21.35-6.93-43.59,9.39-58.35,8.54-7.73,23.21-14.66,29.7-17.92s9.92-5,14.73-8.35c5.04-3.34,6.74-4.54,12.23-2.31.37.15.75-.18.66-.56-.96-4.06-4.77-20.28-6.36-27.04-.13-.54-.91-.48-.96.07-1.71,18.1-5.36,21.54-9.1,25.21-3.67,3.52-8.29,6.53-13.76,9.42-5.46,2.89-20.67,11.12-28.2,16.9-11.8,9.05-18.34,29.9-14.27,47.36,1.28,5.48,3.13,10.76,5.94,15.57Z"/>
  <path d="m626.06,259.91c1.57,8.55,4.55,21.4,9.95,35.17,5.92,15.09,3.01,22.3,9.43,29.93,7.56,8.98,16.49,4.09,18.24.57.93-2.05,2.69-8.11-1.28-7.13-.55.29-.88.87-.86,1.48.08,2.08-.35,6.78-5.85,7.03-6.41.28-9.47-7.09-9.78-13.88-.31-6.78,5.43-8.7,11.24-9.49,4.82.07,17.84-.17,34.02.42,5.06.18,10.11.72,15.1,1.64,8.32,1.52,17.72,3.76,26.54,6.42,9.56,2.88,18.06,6.12,24.58,9.37,7.56,3.78,12.54,7.56,14.79,11.24,1.65,2.71,1.8,5.37.45,7.91-4.84,9.06-6.76,17.01-7.52,22.08-.25,1.68-.4,3.17-.48,4.42-.1,1.6-.22,3.21-.37,4.81-3.13,31.81,16.92,72.16,54.02,72.34-11.84-1.08-18.99-4.26-27.3-11.15-27.17-22.52-26.4-64.02-7.25-78.23,6.69-7.35,28.59-12.55,31.56-13.63,6.43-1.31,9.17-4.29,2.37-8.97-80.97-60.72-167.57,2.48-190.59-72.58-.19-.62-1.12-.4-1,.24Zm79.57,45.09c-.17-.03-.14-.28.03-.27,32.06,2.09,69.88,8.01,82.9,24.67,2.03,2.59,1.75,6.02-1.15,7.14-11.37,4.39-18.42,14.22-21.56,26.24-.04.15-.27.11-.24-.05,0,0,0-.02,0-.02.76-5.03,2.67-12.92,7.47-21.9,1.45-2.71,1.29-5.54-.46-8.42-2.3-3.77-7.35-7.62-15-11.44-6.54-3.27-15.07-6.52-24.66-9.4-9.09-2.73-18.81-5.04-27.33-6.56Z"/>
  <g>
    <path d="m860.18,453.54h0s-.03.02,0,0Zm-223.45,3.18c16.32-.06,33.11-8.6,40.04-23.5.86-2.2,1.35-3.83,1.37-5.72-.04-3.4-2.85-6.13-6.26-6.08-3.26.05-6,2.79-6.07,6.05-.12,3.85,3.52,6.94,7.31,6.17,1-.19,1.78.87,1.31,1.78-7.17,13.24-22.79,20.34-37.69,20.45-46.26-1.2-62.55-61.91-27.54-91.37l-.34-.38c-1.58,1.38-3.11,2.88-4.6,4.48h0c-30.63,30.36-10.76,88.07,32.49,88.12Z"/>
    <path d="m608.85,364.12l.34.38c24.69-21.79,67.07-21.56,96.35,4.29,9.23,8.16,11.07,22.41,24.74,40.75,11.79,15.99,23.9,25.2,39.56,32.64,20.55,10.87,44.23,20.59,64.08,19.03h0c7.05-.4,13.95-1.94,20.44-4.76,15.14-6.4,23.91-19.03,25.87-36.85l-.62-.06c-1.55,14.08-8.6,27.21-22.09,34.54-26.95,14.84-74.53,1.57-84.13-21.27-4.37-10.32-8.51-18.31-12.98-25.23-2.7-4.19-5.5-7.99-8.55-11.67-10.41-12.46-19.83-17.73-32.21-23.4h0c-4.58-2.14-8.67-4.09-12.08-6.8-25.72-20.59-69.86-27.32-98.7-1.58Zm159.88,73.79c-1.86-2.3-4.42-6.35-5.83-12.49-.51-2.23-.65-4.18-.78-6.06-.05-.7-.09-1.39-.16-2.08-.05-.47.58-.67.82-.26,3.75,6.71,7.12,13.64,10.27,20.48.66,1.29-.64,2.71-1.98,2.16t-.02,0c-.9-.38-1.7-.98-2.32-1.74Zm-26.85-31.5v-.17c0-1.86-.02-3.97-.2-6.39-.41-5.49-2.92-10.72-5.33-14.57-.29-.47.31-.99.74-.64,8.21,6.67,14.96,15.04,20.78,24.18,1.97,3.08,3.12,6.62,3.38,10.27,0,.11.02.22.03.33.13,1.91.27,3.89.8,6.19,1.1,4.8,2.87,8.35,4.49,10.81.3.46-.19,1-.67.75-4.37-2.36-8.8-5.35-12.96-8.56-6.9-5.31-11.01-13.48-11.06-22.2Zm-18.61-18.89l.04-1.09c.14-3.38.29-7.06-.98-10.06-.18-.42.24-.85.66-.66.97.46,1.93.94,2.87,1.44,4.78,2.54,8.73,6.4,11.28,11.18,1.8,3.36,3.37,7.4,3.68,11.59.19,2.38.19,4.48.2,6.33.03,4.18.05,7.52,1.78,11.82.29.73-.61,1.35-1.17.8-3.67-3.53-6.62-6.82-8.44-9.28-1.96-2.65-4.23-6.07-6.64-9.96-2.22-3.59-3.42-7.75-3.29-11.98v-.12Zm-6.28-14.26c1.08.38,2.13.78,3.18,1.21h0c2.65,3,2.47,7.53,2.29,11.93l-.04,1.1c-.05,1.37.02,2.65.15,3.82.06.46-.56.67-.78.27-2.76-4.8-5.51-9.96-8.06-15.05-1.04-2.07,1.16-4.28,3.25-3.27Z"/>
    <path d="m834.8,372.92c4.56-.01,6.99-4.35,5.68-7.79-.47-1.24.53-2.55,1.83-2.32,25.9,4.57,39.99,32.11,37.28,56.72l.62.06c.29-2.54.43-5.17.44-7.92,0-27.77-20.64-50.37-46.01-50.37v.09c-7.91.45-7.77,11.25.15,11.53Z"/>
  </g>
  <path d="m648.97,476.38c0,.76.39,1.42.97,1.82.35.23.76.36,1.21.36.55.08,1.1.13,1.64.19.26.03.52.05.78.07,18.6,1.56,34.27-7.99,46.1-22.72,4.01-4.93,7.87-11.34,11.26-17.93,2.65-5.17,9.45-6.46,13.76-2.56,1.64,1.5,3.2,2.86,4.44,3.91,35.05,29.83,68.14,37.36,98.62,39.51,5.83.41,18.43.82,24.6.75,1.45-.02,2.82-.06,4.06-.14,1.46,0,2.63-1.23,2.54-2.71-.08-1.27-1.11-2.3-2.37-2.38-1.48-.09-2.71,1.08-2.71,2.54,0,.44.11.86.31,1.21.25.44-.06.98-.57,1-1.05.03-2.32.05-2.92.04-7.45-.13-17.06-.71-22.89-1.21-36.3-3.09-67.41-13.12-98.3-43.45-5.48-5.18-10.61-10.93-15.84-17.63-.78-1-2.36-.57-2.54.67-.56,3.93-1.41,8-2.12,10.56-5.64,20.49-16.58,38.88-37.69,47.4-5.51,2.16-10.24,2.97-15.73,3-.32,0-1.19-.04-2.01-.09-.57-.03-.86-.68-.53-1.15,0,0,0-.01,0-.02.17-.31.27-.66.27-1.04,0-1.21-.99-2.19-2.19-2.19s-2.18.98-2.18,2.19Z"/>
  <path d="m535.58,380.92v61.83s1.61-25.14,1.61-25.14c0,0,.92-6.57,4.73-5.65,3.81.92,8.99,7.11,8.99,7.11l39.21,42.3s3.23,3.52,2.5,6.86c-1.49,6.8-9.41,5.19-40.78,6.8-.58.03,49.23.01,67.92,0,.03,0,.06,0,.09,0,.39-.02.69-.34.69-.73,0-.02,0-.04,0-.05-.02-.32-.27-.57-.59-.64-.05-.01-.1-.02-.15-.03h0c-5.3-1.15-14.53-2.03-22.53-9.05-19.98-17.55-49.18-51.95-51.43-56.23-1.72-3.29-7.11-9.88-9.46-27.42,0-.02,0-.03,0-.05,0,0,0,0,0,0-.04-.18-.2-.32-.4-.32-.22,0-.4.18-.4.4Z"/>
  <path class="cls-1" d="m558.47,740.18h0c.43.97.89,1.93,1.38,2.88-.82-1.7-1.38-2.88-1.38-2.88Z"/>
  <path class="cls-2" d="m700.95,726.39c-.67.58-1.37,1.17-2.09,1.75.06-.04.85-.65,2.09-1.75Z"/>
  <polygon class="cls-2" points="691.67 698.01 691.68 698.01 691.68 698 691.67 698.01"/>
  <path d="m691.67,698.01h0s0-.01,0-.01h0Z"/>
  <polygon points="691.67 698.01 691.68 698.01 691.68 698 691.67 698.01"/>
  <path d="m853.98,644.1c0,.2.12.72.22,1.11,0,0,0,0,0,0,.05.21.09.38.1.43,0,0,0,0,0,.01.3,1.15.83,2.29,1.57,3.36,2.86,4.11,7.94,5.53,11.33,3.16s3.83-7.62.96-11.73c-1.65-2.37-4.03-3.84-6.41-4.21-3.29-.51-5.49-3.67-4.8-6.93.37-1.75,1.06-3.42,2.12-4.92,1.25-1.77,2.98-3.19,4.91-4.16,5.19-2.52,10.9-4.31,16.68-4.4.02,0,.04,0,.07,0,2.85-.05,4.79,2.9,3.62,5.5-2.25,4.99-3.01,10.63-2.07,16.1,1.41,9.28,6.96,16.75,16.07,19.59,3.15.99,6.42,1.35,9.69,1.12,1.52-.16,3.01-.51,4.45-.99,3.98-1.3,7.1-3.16,9.92-8.26.04-.06.07-.13.1-.19,0,0,0,0,0,0,.16-.3.28-.63.37-.97h0c.11-.4.16-.83.16-1.26,0-2.43-1.74-4.41-3.88-4.41s-3.88,1.97-3.88,4.41c0,1.82.98,3.39,2.37,4.06,0,0,0,0,.01,0,.7.33.83,1.27.23,1.76-2.63,2.16-6.4,2.93-9.76,2.99-.06,0-.19,0-.25,0-.03,0,0,0-.01,0l-.31-.02c-5.92-.4-11.85-2.92-15.5-7.6-2.48-3.13-3.74-7.05-4.13-11-.77-6.66,1.36-13.32,5.97-18.13.34-.36.7-.7,1.07-1.04,1.49-1.37,3.17-2.56,4.97-3.51,1.96-1.03,4.07-1.76,6.26-2.11,5.01-.7,10.26.45,14.66,2.91,5.6,3.09,9.36,8.56,10.57,14.86.48,2.4.7,4.87.54,7.31-.24,4.07-1.67,8.05-4.07,11.36-3.25,4.53-8.08,8.01-13.19,10.46-.27.13-.74.34-1.26.57-.29.13-.15.57.16.5,6.35-1.43,12.67-4.54,17.01-9.32,3.99-4.34,6.2-10.09,6.41-15.96.25-5.91-1.04-11.95-4.28-16.97-5.31-8.33-15.41-13.07-25.21-12.55-.08,0-.16,0-.24.01-.53.03-1.05.08-1.57.14-1.05.13-2.1.25-3.16.35-3.26.31-6.1.65-8.07,1.17-2.37.62-5.15,1.31-7.1,2.06-2.23.84-4.49,1.72-6.69,2.63-6.13,2.6-11.43,5.36-17.13,8.35-.68.39-1.68,1.01-2.31,1.49-1.15.88-2.19,1.92-3.07,3.08-4.25,5.72-4.55,12.9-4.23,19.76Z"/>
  <path d="m854.2,645.22c.03.14.07.29.1.43-.01-.05-.06-.22-.1-.43Z"/>
  <path d="m827.16,689.62h.07c.08,0,.15-.01.23-.02-.1,0-.2.02-.3.02Z"/>
  <path d="m705.71,761.93c.18-.02.36-.03.53-.04-.18,0-.35.02-.53.04Z"/>
  <path d="m691.44,775.42c.14,4.46,1.98,8.97,5.45,11.86,5.99,4.9,14.47,3.83,21.4,1.81,7.14-2.14,13.56-6.31,18.78-11.59,4.19-4.23,8.04-9.62,10.96-14.46,2.92-4.84,5.61-10.3,8.99-18.37s9.76-20.91,13.45-29.14c3.69-8.23,9.84-19.22,13.76-24.52s12.81-17.27,27.01-25.41c.94-.53,1.89-1.07,2.87-1.53,1.65-.73,3.39-1.22,5.15-1.63,9.28-2.15,23.35-1.87,24.1,10.48.45,6.32-2.48,11.33-8.15,14.11-.53.27-1.08.51-1.63.73-.92.37-1.91-.42-1.73-1.4.03-.17.05-.34.05-.51,0-2.09-2.25-3.78-5.04-3.78s-5.03,1.69-5.03,3.78,2.25,3.79,5.03,3.79c.1,0,.2,0,.3,0,.1,0,.2-.01.3-.02.17-.02.34-.04.51-.07,5.55-.76,11.06-3.01,14.02-8.01,1.53-2.59,2.06-5.67,1.89-8.64-.14-2.99-1.22-6.04-3.42-8.14-5.34-5.06-14.66-4.64-21.41-3.32-2.19.46-4.82,1.35-6.43,2.05-15.54,6.77-27,18.54-32.45,26.38-5.46,7.84-9.15,13.91-13.76,24.37s-10.15,23.29-12.61,29.6-6.21,15.7-6.62,16.68c-6.76,15.3-20.42,28.26-37.66,29.64-4.3.34-8.92-.41-12.32-3.23-3.38-2.78-5.19-7.18-5.32-11.51-.16-5.98,4.12-10.09,9.39-11.97,0,0,0,0,.01,0,.44-.16.84.32.6.73-.26.46-.41.97-.41,1.5,0,2.09,2.25,3.79,5.04,3.79s5.03-1.69,5.03-3.79-2.25-3.79-5.03-3.79c-.08,0-.16,0-.24,0,0,0,0,0-.01,0-.17,0-.35.02-.53.04-2.29.22-5.28,1.13-7.67,2.51-3.98,2.21-6.77,6.34-6.6,10.98Z"/>
  <path d="m827.45,689.6c.17-.02.35-.04.51-.07-.17.02-.34.05-.51.07Z"/>
  <path d="m524.62,618.33v100.3c0,9-7.37,16.49-16.37,16.48s-16.31-7.32-16.31-16.34v-76.03c0-.52.27-1,.72-1.26,13.48-8.01,23.35-17.45,29.4-24.13.9-1,2.56-.36,2.56.99Z"/>
  <path d="m512,867.95v-79.34l-.04-.4c2.74-1.41,4.63-4.36,4.63-7.77,0-1.79-.52-3.45-1.41-4.83-1.14-1.76-2.88-3.07-4.91-3.59-.63-.16-1.3-.25-1.98-.25s-1.34.09-1.98.25c-2.03.52-3.78,1.82-4.91,3.59-.89,1.38-1.41,3.04-1.41,4.83,0,3.41,1.89,6.36,4.63,7.77l-.04.4v79.34c-8.58-40.38-43.64-81.7-43.64-81.7,12.92-10.87,22.38-37.12,25.18-45.57.37-1.11,1.76-1.42,2.5-.53,9.03,10.83,19.68,9.64,19.68,9.64,0,0,10.64,1.19,19.68-9.64.74-.89,2.13-.59,2.5.53,2.8,8.45,12.27,34.7,25.18,45.57,0,0-35.06,41.32-43.64,81.7Z"/>
  <path d="m619.75,475.04s.03,0,.04,0,.03,0,.04,0c-.03,0-.06,0-.09,0Z"/>
  <path d="m882.62,591.15c-10.14,3.18-36.09,15.27-65.52,17.63,11.37.25,18.4-.59,40.48-5.13.34-.07.5.42.2.59-5.41,2.99-11.4,5.72-15.3,7.43s-15.37,6.43-25.63,6.31l-23.31.59c-.36,0-.52.47-.23.69,1.26,1.01,3.49,3,4.16,4.99.94,2.81,1.57,6.41,1.75,8.76.13,1.81.83,3.67,4.31,3.79,3.48.12,4.36-1.38,5.94-2.92,1.58-1.54,9.03-10.63,10.78-11.95,1.75-1.33,2.92-2.15,4.88-2.75,1.96-.6,4.13-1.17,4.54,0,.4,1.17-1.06,2.11-2,3.02,0,0,0,0,0,0-10.53,7.97-18.13,14.77-20.81,17.15-.23.2-.5.45-.81.73-1.43.82-2.86,1.48-3.95,1.65-3.38.54-5.48-.17-6.46-1.77-.98-1.6-.57-7.33-2.84-14.22-2.77-8.38-11.76-14.66-26.78-12.5-17.1,2.45-23.92,19.33-25.24,23.32-2.67,8.07-2.08,20.14,4.02,22.42,2.24.84,3.08.95,6.05,1.04,3.6.03,4.33-.64,4.89-1.24s.87-1.67.87-2.67c0-2-1.54-3.84-3.44-3.84s-3.44,1.85-3.44,3.84c0,.37.05.73.15,1.07.22.75-.31,1.51-1,1.41-2.24-.32-6-1.68-7.21-5.79-2.61-8.86.67-15.35,4.31-21.53,3.55-6.02,14.38-17.73,29.21-14.91,11.34,2.15,15.76,11.76,14.99,21.68-.77,9.95-4.69,16.07-6.23,18.45-1.03,1.6-13.22,14.74-21.07,23.16-16.16,14.68-32.91,29.62-43.12,37.88-12.44,10.07-22.92,17.83-33.13,24.21-.57.14-1.12.26-1.64.38-1.7.37-3.09-1.35-2.37-2.94,2.57-5.7,7.76-16.47,11.96-20.65,14.74-14.64,11.92-31.67,11.92-31.67-.5,11.11-7.41,22.82-8.64,24.5-.32.44-.81,1.12-1.44,1.82-.59.66-1.99-.05-1.69-.88l.36-1.68s4.29-15.49,6.05-24.02c1.77-8.53,3.46-25.33,3.61-26.71.32-2.77,2.61-2.08,3.08-1.11.46.96,8.61,18.72,9.57,31.17,1.42,18.43-11.3,31.83-16.44,36.45,17.71-15.39,18.81-29.96,18.47-36.18-.35-6.46-2.46-13.15-9.96-34.29-2.38-6.71-1.58-20.76,6-30.98,5.48-7.4,4-7.38,20.99-18.8,16.99-11.42,54.43-5.38,54.43-5.38-13.06-3.22-24.03-3.96-33.12-3.31h0s-15.83.51-27.36,4.85c-10.53,3.97-28.11,1.62-35.9-2.23-7.79-3.85-25.18-12.11-38.71-14.72-12.86-2.48-33.71-3.88-48.51,8.11-11.41,9.24-25.14,27.29-14.57,51.01,10.57,23.72,32.52,24.06,39.97,23.06,7.45-1,15.98-5.19,20.44-12.94-.19.27-4.39,5.98-14.75,5.98-6.34,0-17.05-5.51-24.79-18.21-5.47-8.98-6.71-17.62-5.15-25.24.32-1.56,2.53-1.62,2.92-.07.41,1.63.94,3.44,1.59,5.48,1.71,5.36,5.24,10.04,9.61,13.59,2.15,1.75,7.47,5.48,13.68,5.48s10.61-1.61,15.02-4.81c5.91-4.28,8.49-12.36,8.56-15.24,0-.04,0-.07,0-.11,0-1.98-1.49-3.59-3.32-3.59s-3.33,1.61-3.33,3.59,1.49,3.59,3.33,3.59c.15,0,.3-.01.45-.03.75-.11,1.35.63,1.09,1.34-1.11,3.04-3.2,6.9-7.13,9.74-5.64,4.07-8.07,4.59-14.51,4.6-6.27.01-11.44-4.56-12.9-5.95-3.67-3.48-10.01-10.99-9.76-23.41.09-4.69,1.87-8.48,4.29-11.48,6.68-6.62,15.73-10.73,24.36-11.01,19-.61,37.27,6.05,54.49,17.07.77.49,4.92,2.74,7.15,6.51,4.97,8.41.27,21.78-8.15,26.97-12.21,7.52-22.02,9.76-28.75,14.49-4.29,3.02-10.48,9.33-9,19.88.74,5.28,2.45,7.99,5.68,10.31,2.28,1.63,7.02,2.32,12.2,1.87,8.5-.74,12.42-8.38,12.21-10.75,0-1.65-1.04-2.99-2.32-2.99s-2.32,1.34-2.32,2.99c0,1.24.59,2.31,1.43,2.76,0,0,0,0,0,0,.63.32.88,1.11.5,1.71-.33.52-.74,1.04-1.24,1.53-2.73,2.65-6.78,4.77-15.43,3.39-6.36-1.01-8.29-7.67-8.81-10.2-.53-2.52-.54-9.87,6.18-16.04,8.02-7.38,24.87-12.49,29.02-12.99,4.15-.5,6.03-.65,6.42,4.19.3,3.73-.16,10.6-.47,14.27,0,0,0,0,0,0-3.08,17.59-9.23,34.03-9.23,34.03,0,0-.63,1.59-.81,2-.97,2.12-2.44,3.6-4.06,5.28-1.24,1.28-2.64,2.5-4.05,3.58-2.63,2.03-5.51,3.79-8.46,5.33-2.39,1.27-5,2.37-7.47,3.46-3.36,1.54-6.6,3.34-9.67,5.41-7.21,4.8-13.24,11.17-18.36,18.11-1.2,1.56-2.31,3.17-3.63,4.61-1.96,2.02-4.06,3.92-6.52,5.3-7.32,4.11-16.08,4.5-24.3,4.11-.01,0-.03,0-.04,0-3.1-.17-6.08-1.24-8.6-3.04-3.41-2.45-6.66-5.44-9.64-9.09-.66-.81-1.29-1.61-1.88-2.41-1.2-1.6.57-3.72,2.36-2.84h0c9.8,6,22.08,3.97,27.04.92,6.5-3.99,10.03-9.2,11.53-14.01,1.15-3.69.61-7.54.29-9.15-.08-.43-.15-.85-.2-1.28-.25-2.09-2.04-3.72-4.2-3.72-2.39,0-4.32,1.99-4.23,4.4.09,2.16,1.83,3.93,3.99,4.05.41.02.81-.01,1.18-.1,1.08-.25,2.12.54,2.13,1.65.02,1.63-.32,3.84-1.55,6.57-2.88,6.4-13.61,17.01-30.04,10.96-4.81-1.77-8.45-5.27-11.19-9.33-7.49-11.1-7.71-25.57-.78-37.02.74-1.21,1.39-2.21,1.86-2.96,4.07-6.5,13.91-13.64,25.52-11.38,10.2,1.99,23.24,16.16,23.67,16.63-.1-.14-6.26-8.91-10.94-13.59-16.72-16.72-33.18-9.7-37.82-7.96-9.73,3.65-28.02,19.72-28.71,46.24-.19,7.45,1.06,14.71,4.09,21.61h0s.56,1.18,1.38,2.88c0,0,0,0,0,0,1.62,3.36,4.26,8.74,5.59,10.99,2,3.38,6.42,14.45,6.8,19.87.38,5.42-.27,13.88-1.61,16.41-3.69,6.95-16.07,18.3-20.56,28.44-2.51,5.67-4.05,18.71,1.23,27.06,5.12,8.11,16.07,12.88,25.83,10.3,1.31-.34,2.81-1.35,2.81-1.35,1.97-1.29,3.68-2.66,4.6-3.42.08-.07.16-.13.24-.19.17-.13.33-.27.48-.42h0c.78-.81,1.23-1.92,1.16-3.15-.12-2.13-1.87-3.84-4-3.93-2.38-.09-4.35,1.81-4.35,4.17,0,1.29.58,2.44,1.5,3.21.73.61.76,1.73.06,2.37-.17.15-.38.32-.66.51-1.09.77-4.5,3.02-11.57,1.54-6.04-1.27-12.77-5.22-16.11-11.52-3.34-6.3-2.99-17.78-.49-23.69,3.31-7.8,17.82-24.87,26.25-29.83,7.71-4.53,15.02-7.53,22.53-6.79.67.07,1.6.73,1.65,1.72.07,1.23-.7,2.14-2.56,3.97-1.87,1.83-4.2,6.18-4.7,9.1-.5,2.92-1.79,13.66,6.41,20.56,3.65,3.08,10.94,6.57,21.76,4.94,5.2-.78,10.12-6.32,11.71-10.16h0c.38-.66.58-1.43.55-2.25-.09-2.16-1.85-3.92-4.01-4-2.38-.09-4.34,1.81-4.34,4.17,0,2.08,1.52,3.8,3.51,4.12,0,0,0,0,0,0,.65.1.99.82.64,1.37-1.43,2.26-3.93,5.06-7.83,5.81-4.68.89-13.64.69-19.14-3.27-5.1-3.67-7.88-8.61-8.03-13.22-.15-4.61-.31-10.11,4.11-14.88,4.42-4.77,8.46-7.76,13.03-10.45,4.57-2.69,16.3-5.42,23.03-6.56,15.21-2.58,29.29-9.56,38.93-15.35,19.6-11.76,69.05-52.32,129.23-107.7,40.97-37.71,60.12-42.67,75.57-47.51,15.45-4.84,42.22-8.24,57.48,2.94,21.1,15.45,6.75,39.49,6.69,41.34,6.86-6.1,22.19-27.41,12.57-44.11-6.98-12.11-17.07-21.27-54.2-17.41-6.26.65-8.87,1.14-19.02,4.32Zm-62.34,28.59c-2.09,2.15-8.52,8.78-9.8,10.24-1.54,1.75-3.06,4.11-5.44,4.44-2.38.33-3.96-.38-4.21-2.08-.25-1.69-1.61-4.11-2.49-7.03-.59-1.96-2.51-4.39-3.23-5.35-.15-.2,0-.48.24-.48l24.64-.41c.35,0,.53.41.29.66Zm-218.22,162.47c-4.23.06-12.7.51-18.08,3.42-5.43,2.93-10.51.71-10.63-2.67-.12-3.38.08-9.44.08-11.56s.57-4.7,3.82-5.78c2.25-.74,4.3.59,5.6,1.58,1.29.99,1.67,1.61,5.47,3.18,3.8,1.58,13.84,4.42,15.57,4.77,1.73.35,2.88,1.17,2.88,3.34s-.48,3.65-4.71,3.71Zm43.96-21.77c-8.22,1.1-16.33,1.56-27.2,0-1.97-.28-2.01-3.12-.04-3.46.88-.15,1.63-.3,2.18-.44,5.62-1.48,10.81-4.1,14.9-8.65l.63-.67c.12-.13.23-.24.33-.36.53-.6,1.01-1.24,1.47-1.87,1.45-1.99,2.81-4,4.28-5.95,6.85-9.32,15.97-16.84,26.61-21.43,2.21-.97,4.53-2.04,6.66-3.16,2.18-1.11,4.35-2.37,6.41-3.69,2.07-1.35,4.12-2.83,5.97-4.46,1.16-1.03,2.27-2.11,3.27-3.29.36-.43.71-.86,1.04-1.32.24-.32.63-.48,1.03-.4.02,0,.04,0,.05.01.51.1.84.59.78,1.1-.42,3.61-3.02,19.26-18.14,39.21-7.5,9.89-22.02,17.71-30.24,18.82Z"/>
  <g>
    <g>
      <path d="m82.94,528.06c-12.17-5.55-17.6-8.2-17.6-17.25,0-8.08,5.67-13.25,14.59-13.14,12.79.15,17.2,3.51,19.17,19.17h2.9c-.37-3.74-.61-7.48-.61-11.7,0-3.13-.47-16.11-.11-18.89l-3,.25c0,7.42-10.62,6.57-15.58,6.57-14.72,0-26.76,8.08-26.76,20.74,0,11.94,9.04,16.16,21.22,21.83,12.3,5.67,17.97,8.92,17.97,18.69s-7.11,16.76-18.32,16.76-18.81-7.24-19.9-19.05h-3.25c.36,4.22.48,7.11.48,10.85s-.13,11.89-.48,15.39l2.48.49c1.1-9.84,7.35-2.86,19.34-2.86,18.21,0,29.18-9.04,29.18-24.23,0-13.02-8.8-17.72-21.71-23.63Z"/>
      <path d="m197.61,496.59v-2.65c-5.91.6-8.56.72-13.63.72s-7.84-.12-13.62-.72v2.65c7.24.73,9.16,5.19,9.16,19.41v13.99h-43.4v-13.99c0-14.22,1.81-18.68,9.16-19.41v-2.65c-6.03.6-8.68.72-13.86.72s-7.48-.12-13.39-.72v2.65c7.24.73,9.16,5.19,9.16,19.41v37.02c0,14.35-1.93,18.82-9.16,19.42v2.65c5.91-.6,8.2-.73,13.39-.73s7.84.13,13.86.73v-2.65c-7.35-.6-9.16-5.19-9.16-19.42v-17.97h43.4v17.97c0,14.35-1.93,18.82-9.16,19.42v2.65c5.91-.6,8.56-.73,13.62-.73s7.72.13,13.63.73v-2.65c-7.24-.6-9.16-5.07-9.16-19.42v-37.02c0-14.22,1.93-18.68,9.16-19.41Z"/>
      <path d="m319.51,493.94c-6.63,0-13.14.72-17.97.72-3.98,0-9.05-.24-13.26-.72v2.65c7.24.73,9.16,5.19,9.16,19.41v37.02c0,14.35-1.93,18.82-9.16,19.42v2.65c4.34-.48,9.05-.73,13.51-.73,4.7,0,10.97.73,21.58.73,26.16,0,40.15-14.46,40.15-41.47s-13.26-39.67-44.01-39.67Zm-.48,76.56c-7.95,0-10.6-1.09-11.57-4.95-.6-2.41-1.08-8.68-1.08-12.9v-52.45c3.01-1.08,6.99-1.69,11.7-1.69,23.51,0,35.56,12.91,35.56,37.86s-10.25,34.13-34.61,34.13Z"/>
      <path d="m416.81,493.09c-25.32,0-39.67,15.31-39.67,42.33s12.41,40.51,36.77,40.51c27.37,0,39.07-15.19,39.07-41.47s-12.31-41.36-36.17-41.36Zm-1.81,78.37c-17.37,0-27.13-13.14-27.13-36.66s10.37-37.25,27.73-37.25,26.77,13.14,26.77,37.97c0,23.28-9.65,35.93-27.37,35.93Z"/>
      <path d="m565.84,494.66c-3.74,0-7.6-.24-12.78-.72v2.53c5.67.13,8.45,2.53,8.45,7.36,0,3.37-1.93,9.28-4.23,15.67l-13.44,37.53s-.03.1-.04.14l-1.58,4.4-16.52-43.77c-2.89-7.71-3.86-11.09-3.86-14.22,0-4.46,2.65-6.75,8.2-7.12v-2.53c-5.07.47-8.92.72-13.26.72-4.59,0-9.29-.24-14.11-.72v2.05c4.22,1.44,7.23,5.42,10.85,14.46l-18.45,51.96-17.36-47.02c-2.17-5.91-3.13-9.29-3.13-11.81,0-4.7,2.65-6.88,7.95-7.12v-2.53c-5.19.47-9.16.72-14.22.72s-8.69-.24-12.91-.72v2.05c4.59,2.17,7.84,6.14,13.99,22.54l21.1,56.55h6.63c1.81-6.63,3.99-13.26,6.27-19.78l13.26-36.77,15.65,41.47c3.44,9.11,2.5,19.34-2.67,27.58-6.02,9.58-13.24,18.41-21.48,26.16-21.54,20.37-49.7,32.96-78.99,36.97-1.69.23-3.38.43-5.08.61-6.6.67-13.25.91-19.88.71-53.19-.9-101.6-31.61-126.74-77.26-3.98-7.22-7.37-14.81-10.11-22.72,0-.04-17.4-44.62-17.4-44.62-1.81-4.58-3.38-9.28-4.7-13.98-5.07.84-8.8,1.2-13.15,1.2-1.44,0-2.17,0-4.09-.12v2.53c5.66.24,7.84,1.57,7.84,4.94,0,2.04-.12,3.01-3.02,10.36l-15.67,40.52c-4.59,11.81-8.2,18.81-13.02,20.13v2.05c5.54-.6,7.72-.73,12.3-.73s6.64.13,11.45.73v-2.65c-5.67-.48-8.08-2.89-8.08-8.2,0-2.41.48-4.94,1.69-8.2l3.38-8.8h31.46c2.32,5.92,4.92,11.71,7.8,17.38,1.77,3.48,3.73,7.2,5.23,9.76,3.48,5.94,7.28,11.68,11.46,17.16,1.98,2.47,1.15,5.08.71,5.81-1.23,2.03-7.23,2-17.84.61h0c-9.96-1.34-22.5-1-37.99,2.81,0,0,26.92-4.34,45.47,1.3h0s5.82,2.27,5.82,2.27c1.11.55,2.15,1.15,3.13,1.8,16.99,11.42,15.5,11.39,20.99,18.8,7.57,10.22,8.38,24.27,6,30.98-7.5,21.14-9.61,27.83-9.96,34.29-.33,6.22.76,20.79,18.47,36.18-5.14-4.62-17.86-18.02-16.44-36.45.96-12.45,9.11-30.21,9.57-31.17.46-.96,2.76-1.66,3.08,1.11.16,1.39,1.84,18.18,3.61,26.71,1.77,8.53,6.05,24.02,6.05,24.02l.36,1.68c.3.83-1.09,1.54-1.69.88-.63-.7-1.11-1.38-1.44-1.82-1.22-1.68-8.14-13.39-8.64-24.5,0,0-2.83,17.03,11.92,31.67,4.21,4.18,9.39,14.95,11.96,20.65.71,1.58-.68,3.3-2.37,2.94-.52-.11-1.07-.24-1.64-.38-10.22-6.38-20.69-14.14-33.13-24.21-10.21-8.26-26.96-23.2-43.12-37.88-7.85-8.41-20.04-21.55-21.07-23.16-1.54-2.38-5.46-8.5-6.23-18.45-.77-9.92,3.65-19.52,14.99-21.68,14.84-2.82,25.67,8.89,29.21,14.91,3.64,6.18,6.92,12.66,4.31,21.53-1.21,4.11-4.97,5.47-7.21,5.79-.68.1-1.22-.67-1-1.41.1-.34.15-.7.15-1.07,0-2-1.54-3.84-3.44-3.84s-3.44,1.85-3.44,3.84c0,1,.3,2.08.87,2.67.57.6,1.29,1.27,4.89,1.24,2.96-.08,3.81-.2,6.05-1.04,6.1-2.28,6.69-14.35,4.02-22.42-1.32-3.98-8.14-20.87-25.24-23.32-15.02-2.15-24.01,4.13-26.78,12.5-2.28,6.89-1.86,12.63-2.84,14.22-.98,1.6-3.07,2.31-6.46,1.77-1.09-.17-2.52-.84-3.95-1.65-.31-.28-.59-.53-.81-.73-2.68-2.38-10.28-9.19-20.81-17.15,0,0,0,0,0,0-.94-.92-2.4-1.85-2-3.02.4-1.17,2.58-.6,4.54,0,1.96.6,3.13,1.42,4.88,2.75,1.75,1.33,9.21,10.42,10.78,11.95,1.58,1.54,2.46,3.04,5.94,2.92,3.48-.12,4.17-1.98,4.31-3.79.18-2.36.81-5.96,1.75-8.76.66-1.98,2.9-3.98,4.16-4.99.28-.23.13-.68-.23-.69l-23.31-.59c-10.27.12-20.21-3.76-25.63-6.31-4.9-3.24-10.11-6.45-15.51-9.43-.31-.17-.15-.64.2-.59,14.84,2,33.02,2.06,39.79,2-24.88-.11-63.41-12.12-64.62-12.5-.01,0-.02,0-.03,0h0c-6.35-2.14-12.73-3.66-18.99-4.31-37.13-3.86-47.22,5.3-54.2,17.41-9.62,16.7,5.71,38.01,12.57,44.11-.06-1.84-14.41-25.89,6.69-41.34,15.26-11.18,42.03-7.78,57.48-2.94,15.45,4.84,34.59,9.8,75.57,47.51,60.18,55.38,109.62,95.94,129.23,107.7,9.64,5.78,23.72,12.77,38.93,15.35,6.74,1.14,18.46,3.87,23.03,6.56,4.57,2.69,8.61,5.69,13.03,10.45,4.42,4.77,4.27,10.26,4.11,14.88-.15,4.61-2.94,9.55-8.03,13.22-5.5,3.96-14.46,4.16-19.14,3.27-3.9-.74-6.4-3.54-7.83-5.81-.35-.55,0-1.28.64-1.37,0,0,0,0,0,0,1.99-.32,3.51-2.04,3.51-4.12,0-2.36-1.96-4.26-4.34-4.17-2.16.08-3.92,1.84-4.01,4-.03.82.17,1.59.55,2.25,0,0,0,0,0,0,1.59,3.84,6.51,9.38,11.71,10.16,10.82,1.63,18.1-1.86,21.76-4.94,8.2-6.9,6.91-17.64,6.41-20.56-.5-2.92-2.84-7.26-4.7-9.1-1.87-1.83-2.63-2.74-2.56-3.97.05-.99.99-1.65,1.65-1.72,7.51-.74,14.83,2.26,22.53,6.79,8.43,4.96,22.95,22.02,26.25,29.83,2.5,5.9,2.85,17.38-.49,23.69-3.34,6.3-10.07,10.25-16.11,11.52-7.07,1.49-10.48-.77-11.57-1.54-.28-.2-.49-.36-.66-.51-.7-.64-.67-1.76.06-2.37.92-.77,1.5-1.92,1.5-3.21,0-2.36-1.96-4.27-4.35-4.17-2.13.08-3.88,1.8-4,3.93-.07,1.22.39,2.34,1.16,3.15h0c.15.15.31.3.48.42.08.06.17.12.24.19.92.77,2.63,2.13,4.6,3.42,0,0,1.5,1,2.81,1.35,9.76,2.58,20.71-2.19,25.83-10.3,5.28-8.35,3.74-21.39,1.23-27.06-4.5-10.15-16.88-21.49-20.56-28.44-1.35-2.54-2-10.99-1.61-16.41.38-5.42,4.8-16.49,6.8-19.87,1.33-2.25,3.97-7.62,5.59-10.99,0,0,0,0,0,0,.82-1.7,1.38-2.88,1.38-2.88h0c3.03-6.9,4.29-14.16,4.09-21.61-.69-26.52-19.42-43.17-28.71-46.24-6.24-2.06-20.99-7.84-37.82,7.96-1.6,1.5-4.44,5.04-6.82,8.13-1.67,2.16-3.53,4.18-5.58,5.99-2.36,2.07-4.95,3.88-7.74,5.32-5,2.59-10.77,3.71-16.34,2.76-7.31-1.16-13.6-5.31-17.98-11.23-3.7-5.01-6.57-11.57-7.18-17.8-.35-6.34,1.77-13.19,6.77-17.32,3.75-3.13,8.77-4.25,13.56-4.17,3.22.03,6.48.65,9.35,2.12,6.26,3.13,9.66,10.09,10.3,16.83.18,2.81-.12,5.7-1.09,8.35-.06.16-.13.33-.19.49-.52,1.23-2.18,1.43-3,.38,0,0-.01-.01-.02-.02-.85-1.03-2.21-1.7-3.74-1.7-2.58,0-4.68,1.9-4.68,4.25s2.09,4.25,4.68,4.25c1.62,0,2.89-.53,3.9-1.62,1.01-1.09,2.03-2.87,2.48-3.58,1.33-2.14,1.96-4.63,2.21-7.11.12-1.24.16-2.49.07-3.74-.17-2.07-.63-4.11-1.3-6.08-2.24-6.63-7.05-11.53-13.99-13.02-2.44-.54-4.96-.66-7.45-.5-10.29.6-16.98,7.16-18.52,17.24-.25,1.65-.35,3.33-.24,5,.26,3.33,1.23,6.56,2.45,9.65,2.78,6.91,7.49,13.29,14.03,17.05,3.98,2.3,8.55,3.61,13.15,3.73,2.93.07,5.88-.37,8.67-1.26,6.65-2.1,12.76-6.71,17.36-12.1,2.56-2.99,5.44-5.69,8.65-7.97,3.57-2.53,7.43-4.67,10.96-5.36,11.61-2.27,21.45,4.88,25.52,11.38.47.75,1.13,1.75,1.86,2.96,6.94,11.45,6.72,25.93-.78,37.02-2.74,4.06-6.38,7.56-11.19,9.33-16.43,6.05-27.16-4.56-30.04-10.96-1.23-2.73-1.57-4.94-1.55-6.57.01-1.11,1.05-1.89,2.13-1.65.38.09.77.12,1.18.1,2.16-.12,3.9-1.89,3.99-4.05.1-2.42-1.83-4.4-4.23-4.4-2.16,0-3.95,1.62-4.2,3.72-.05.43-.12.86-.2,1.28-.32,1.6-.86,5.46.29,9.15,1.5,4.81,5.03,10.02,11.53,14.01,4.96,3.04,17.24,5.07,27.04-.92h0c1.79-.89,3.56,1.24,2.36,2.84-.6.8-1.22,1.6-1.88,2.41-2.97,3.65-6.23,6.64-9.64,9.09-2.52,1.81-5.5,2.88-8.6,3.04-.01,0-.03,0-.04,0-8.22.39-16.98,0-24.3-4.11-2.45-1.38-4.56-3.27-6.52-5.3-1.31-1.44-2.43-3.05-3.63-4.61-5.12-6.95-11.15-13.31-18.36-18.11-3.07-2.07-6.31-3.87-9.67-5.41-2.48-1.1-5.08-2.2-7.47-3.46-2.94-1.54-5.83-3.29-8.46-5.33-1.41-1.09-2.81-2.31-4.05-3.58-1.62-1.69-3.08-3.17-4.06-5.28-.18-.4-.81-2-.81-2,0,0-10.48-28.04-10.94-50.06-.09-4.42-.71-8.38-1.68-11.91h0s0,0,0,0c-.04-.18-1.64-7.72-.59-9.27.4-.6,1.89-2.71,7.35.75h0c31.06,20.56,68.87,29.42,105.48,25.63h.03c1.71-.17,3.41-.38,5.11-.61,29.19-3.97,57.37-16.07,80.47-36.76,12.91-11.46,23.5-25.3,31.61-40.53,1.51-2.82,3.57-7.3,5.15-10.82,1.43-3.21,2.73-6.47,3.9-9.79.05-.13.09-.25.13-.37l11.81-32.68c4.23-11.7,9.89-24.72,15.31-25.44v-2.05c-4.34.47-8.19.72-11.94.72Zm-339.05,47.51l13.62-35.57,13.87,35.57h-27.5Zm-30.21,76.91l24.64.41c.25,0,.38.28.24.48-.72.96-2.65,3.39-3.23,5.35-.87,2.92-2.24,5.34-2.49,7.03-.25,1.69-1.83,2.4-4.21,2.08-2.38-.33-3.9-2.69-5.44-4.44-1.28-1.46-7.71-8.09-9.8-10.24-.24-.25-.06-.67.29-.66Zm216.11,156.08c1.73-.35,11.76-3.19,15.57-4.77,3.8-1.58,4.18-2.19,5.47-3.18,1.29-.99,3.35-2.33,5.6-1.58,3.25,1.08,3.82,3.57,3.82,5.78s.19,8.17.08,11.56c-.12,3.38-5.2,5.6-10.63,2.67-5.39-2.91-13.86-3.36-18.08-3.42-4.23-.06-4.71-1.54-4.71-3.71s1.15-3,2.88-3.34Zm-89.74-73.84s.04,0,.05-.01c.39-.07.79.08,1.03.4.33.45.68.89,1.04,1.32,1,1.18,2.11,2.27,3.27,3.29,1.86,1.63,3.9,3.12,5.97,4.46,2.06,1.32,4.23,2.57,6.41,3.69,2.14,1.12,4.45,2.19,6.66,3.16,10.64,4.59,19.76,12.11,26.61,21.43,1.48,1.95,2.84,3.96,4.28,5.95.46.63.94,1.27,1.47,1.87.11.12.21.24.33.36l.63.67c4.09,4.54,9.28,7.16,14.9,8.65.54.14,1.3.29,2.18.44,1.97.33,1.94,3.17-.04,3.46-10.87,1.56-18.99,1.1-27.2,0-8.22-1.1-22.75-8.93-30.24-18.82-15.12-19.95-17.73-35.6-18.14-39.21-.06-.51.28-1,.78-1.1Z"/>
    </g>
    <g>
      <path d="m708.24,551.45c-6.64,13.26-16.28,20.02-28.82,20.02-16.64,0-26.4-13.62-26.4-36.77s10.37-37.13,27.37-37.13c11.21,0,17.84,6.39,20.73,20.01h3.02c-.48-5.54-.6-7.59-.6-11.57s.12-5.54.6-9.65c-7.72-2.29-14.47-3.26-21.7-3.26-25.69,0-40.03,15.56-40.03,43.28s12.54,39.55,37.5,39.55c9.29,0,17.97-1.44,25.68-4.22,1.33-7.35,2.66-12.18,5.55-19.17l-2.89-1.09Z"/>
      <path d="m825.43,496.59v-2.65c-5.67.6-9.05.72-13.75.72-4.94,0-8.08-.12-13.51-.72v2.65c7.24.73,9.16,5.19,9.16,19.41v37.02c0,14.35-1.93,18.82-9.16,19.42v2.65c5.79-.6,8.45-.73,13.51-.73s7.84.13,13.75.73v-2.65c-7.24-.6-9.16-5.07-9.16-19.42v-37.02c0-14.22,1.93-18.68,9.16-19.41Z"/>
      <path d="m874.75,531.31c12.91-2.65,19.42-9.4,19.42-20.13,0-11.94-7.59-17.24-24.24-17.24-6.15,0-12.42.72-18.57.72s-8.44-.12-12.9-.72v2.65c7.84.48,9.16,7.11,9.16,19.41v37.02c0,12.18-1.68,19.42-9.16,19.42v2.65c5.19-.6,8.19-.73,13.38-.73s11.82.73,19.9.73c16.63,0,25.92-7.6,25.92-21.58,0-13.02-6.99-19.77-22.91-22.18Zm-18.21-31.23c2.53-1.2,5.67-1.68,9.29-1.68,11.7,0,18.69,5.9,18.69,15.91s-7.72,15.79-23.39,15.79c-1.93,0-2.65,0-4.59-.23v-29.79Zm11.34,70.54c-7.24,0-10.01-1.93-10.85-7.11-.36-2.78-.48-4.7-.48-11.21v-18.09c2.05-.12,3.02-.12,4.1-.12,18.21,0,27.01,6.27,27.01,19.29,0,12.3-5.67,17.24-19.78,17.24Z"/>
      <path d="m967.71,553.5c-5.43,12.66-12.65,17.01-28.57,17.01-3.86,0-5.79-.48-6.99-1.45-2.18-1.93-3.13-7.24-3.13-16.76v-17.49h9.52c9.05,0,14.23-.23,17.01,8.32h2.65c-.73-4.09-1.08-7.23-1.08-10.97,0-3.49.23-6.63,1.08-11.57h-2.53c-2.29,8.44-9.16,8.8-17.72,8.8h-8.92v-30.39h5.19c18.32,0,23.63,2.78,26.64,13.51l2.53-.84c-1.21-6.04-2.18-12.18-2.18-18.09-7.23.61-11.93.73-21.22.73h-13.15c-5.18,0-11.33-.12-15.91-.36v2.65c7.24.73,9.17,5.19,9.17,19.41v37.02c0,14.35-1.93,18.82-9.17,19.42v2.65c4.46-.24,10.25-.36,14.35-.36h15.2c8.32,0,18.08.48,22.91,1.08,1.44-6.15,3.13-11.1,6.99-20.86l-2.65-1.45Z"/>
      <path d="m607.07,528.06c-12.18-5.55-17.6-8.2-17.6-17.25,0-8.08,5.66-13.25,14.59-13.14,12.79.15,17.2,3.51,19.17,19.17h2.89c-.36-3.74-.6-7.48-.6-11.7,0-3.13-.47-16.11-.11-18.89l-3.01.25c0,7.42-10.61,6.57-15.57,6.57-14.73,0-26.77,8.08-26.77,20.74,0,11.94,9.05,16.16,21.23,21.83,12.3,5.67,17.97,8.92,17.97,18.69s-7.11,16.76-18.33,16.76-18.81-7.24-19.89-19.05h-3.25c.36,4.22.48,7.11.48,10.85s-.12,11.89-.48,15.39l2.47.49c1.1-9.84,7.36-2.86,19.34-2.86,18.21,0,29.18-9.04,29.18-24.23,0-13.02-8.8-17.72-21.7-23.63Z"/>
    </g>
  </g>
  <path d="m825.04,590.39c-19.15-3.5-25.23-9.73-32.53-15.59-1.8-1.45-4.88-4.66-6.34-6.15-1.46-1.5-6.21-7.62-8.49-11.04l-9.16-13.75c-3.13-4.7-6.03-9.4-10.73-10.97,12.91-2.65,19.05-9.16,19.05-20.13,0-13.02-7.71-18.81-25.44-18.81-5.3,0-13.5.72-18.81.72-4.34,0-8.56-.24-12.3-.72v2.65c7.24.73,9.29,5.19,9.29,19.41v37.02c0,14.35-2.05,18.82-9.29,19.42v2.65c3.86-.48,8.44-.73,13.51-.73s10.13.24,13.75.73v-2.65c-7.24-.6-9.17-5.07-9.17-19.42v-19.41c2.42.6,6.51.73,9.41.73,3.61,1.81,8.8,8.32,12.17,13.62l12.7,19.6s0,.01.01.02c1.58,2.44,3.41,4.8,5.43,7.04,12.92,14.27,34.27,24,56.85,24,28.24,0,50.22-18.77,50.73-19.21-9.77,6.92-34.75,15.72-60.64,10.99Zm-77.86-60.16c-3.85,0-6.27-.36-8.8-.97v-29.42c1.58-.6,4.1-1.08,8.45-1.08,13.02,0,20.73,6.03,20.73,16.4,0,9.77-7.23,15.07-20.37,15.07Z"/>
  <polygon points="312 635.86 312 635.86 312 635.86 312 635.86"/>
  <g>
    <path d="m477.37,294.05c-1.18,1.59-2.16,3.61-2.83,5.58-.26.77-1.25.98-1.8.39-9.68-10.4-22.86-23.12-29.89-28.57-1.1-.86-1.1-2.52,0-3.38,7.02-5.46,20.21-18.17,29.89-28.57.55-.6,1.54-.38,1.8.39.67,1.96,1.65,3.99,2.83,5.58.36.48.24,1.17-.25,1.51-4.57,3.22-19.23,16.88-20.49,22.78,1.26,5.91,15.93,19.56,20.49,22.78.49.35.61,1.03.25,1.51Z"/>
    <path d="m539.2,294.05c1.18,1.59,2.16,3.61,2.83,5.58.26.77,1.25.98,1.8.39,9.68-10.4,22.86-23.12,29.89-28.57,1.1-.86,1.1-2.52,0-3.38-7.02-5.46-20.21-18.17-29.89-28.57-.55-.6-1.54-.38-1.8.39-.67,1.96-1.65,3.99-2.83,5.58-.36.48-.24,1.17.25,1.51,4.57,3.22,19.23,16.88,20.49,22.78-1.26,5.91-15.93,19.56-20.49,22.78-.49.35-.61,1.03-.25,1.51Z"/>
  </g>
  <path d="m521.16,228.61c-.95,12.12-4.25,27.14-29.79,74.42-.14.26-.11.58.07.81,1.07,1.36,4.77,6.15,6.98,10.34.33.63,1.27.47,1.38-.23,3.9-25.18,19.37-59.82,31.6-76.06.25-.34.18-.81-.17-1.05-1.5-1.04-5.34-3.94-8.74-8.6-.4-.55-1.28-.31-1.33.37Z"/>
</svg>