<?xml version="1.0" encoding="UTF-8"?>
<svg id="Layer_2" data-name="Layer 2" xmlns="http://www.w3.org/2000/svg" xmlns:xlink="http://www.w3.org/1999/xlink" viewBox="0 0 747.36 562.27">
  <defs>
    <style>
      .cls-1 {
        fill: url(#linear-gradient-2);
      }

      .cls-2 {
        fill: url(#linear-gradient-13);
      }

      .cls-2, .cls-3, .cls-4, .cls-5 {
        opacity: .55;
      }

      .cls-6 {
        fill: url(#linear-gradient-51);
      }

      .cls-7 {
        fill: url(#linear-gradient-17);
      }

      .cls-8 {
        fill: url(#linear-gradient-43);
      }

      .cls-9 {
        fill: url(#linear-gradient-15);
      }

      .cls-10 {
        fill: url(#linear-gradient-58);
      }

      .cls-11 {
        fill: url(#linear-gradient-18);
      }

      .cls-12 {
        fill: url(#linear-gradient-56);
      }

      .cls-13 {
        fill: url(#linear-gradient-40);
      }

      .cls-14 {
        fill: url(#linear-gradient-52);
      }

      .cls-15 {
        fill: url(#linear-gradient-28);
      }

      .cls-16 {
        fill: url(#linear-gradient-36);
      }

      .cls-17 {
        fill: url(#linear-gradient-20);
      }

      .cls-18 {
        fill: url(#linear-gradient-6);
      }

      .cls-19 {
        fill: url(#linear-gradient-53);
      }

      .cls-20 {
        fill: url(#linear-gradient-60);
      }

      .cls-21 {
        fill: url(#linear-gradient-12);
      }

      .cls-21, .cls-22 {
        opacity: .51;
      }

      .cls-23 {
        fill: url(#linear-gradient-48);
      }

      .cls-24 {
        fill: url(#linear-gradient-32);
      }

      .cls-25 {
        fill: url(#linear-gradient-11);
      }

      .cls-26 {
        fill: url(#linear-gradient-50);
      }

      .cls-22 {
        fill: url(#linear-gradient-33);
      }

      .cls-27 {
        fill: url(#linear-gradient-39);
      }

      .cls-28 {
        fill: url(#linear-gradient-10);
      }

      .cls-29 {
        fill: url(#linear-gradient-59);
      }

      .cls-30 {
        fill: url(#linear-gradient-49);
      }

      .cls-31 {
        fill: url(#linear-gradient-37);
      }

      .cls-32 {
        fill: url(#linear-gradient-16);
      }

      .cls-33 {
        fill: url(#linear-gradient-31);
      }

      .cls-34 {
        fill: url(#linear-gradient-61);
      }

      .cls-35 {
        fill: url(#linear-gradient-62);
      }

      .cls-36 {
        fill: url(#linear-gradient-41);
      }

      .cls-37 {
        fill: url(#linear-gradient-21);
      }

      .cls-3 {
        fill: url(#linear-gradient-14);
      }

      .cls-38 {
        fill: url(#linear-gradient-25);
      }

      .cls-39 {
        fill: url(#linear-gradient-5);
      }

      .cls-40 {
        fill: url(#linear-gradient-54);
      }

      .cls-41 {
        fill: url(#linear-gradient-45);
      }

      .cls-42 {
        fill: url(#linear-gradient-55);
      }

      .cls-43 {
        fill: url(#linear-gradient-7);
      }

      .cls-44 {
        fill: url(#linear-gradient-24);
      }

      .cls-45 {
        fill: url(#linear-gradient-9);
      }

      .cls-46 {
        fill: url(#linear-gradient-22);
      }

      .cls-4 {
        fill: url(#linear-gradient-34);
      }

      .cls-47 {
        fill: url(#linear-gradient-42);
      }

      .cls-48 {
        fill: url(#linear-gradient-3);
      }

      .cls-49 {
        fill: url(#linear-gradient);
      }

      .cls-50 {
        fill: url(#linear-gradient-27);
      }

      .cls-51 {
        fill: url(#linear-gradient-38);
      }

      .cls-52 {
        fill: url(#linear-gradient-29);
      }

      .cls-5 {
        fill: url(#linear-gradient-35);
      }

      .cls-53 {
        fill: url(#linear-gradient-30);
      }

      .cls-54 {
        fill: url(#linear-gradient-23);
      }

      .cls-55 {
        fill: url(#linear-gradient-19);
      }

      .cls-56 {
        fill: url(#linear-gradient-4);
      }

      .cls-57 {
        filter: url(#inset-shadow);
      }

      .cls-58 {
        fill: url(#linear-gradient-8);
      }

      .cls-59 {
        fill: url(#linear-gradient-44);
      }

      .cls-60 {
        fill: url(#linear-gradient-57);
      }

      .cls-61 {
        fill: url(#linear-gradient-47);
      }

      .cls-62 {
        fill: url(#linear-gradient-46);
      }

      .cls-63 {
        fill: url(#linear-gradient-26);
      }
    </style>
    <filter id="inset-shadow">
      <feOffset dx="0" dy="0"/>
      <feGaussianBlur result="offset-blur" stdDeviation="4"/>
      <feComposite in="SourceGraphic" in2="offset-blur" operator="out" result="inverse"/>
      <feFlood flood-color="gold" flood-opacity=".75" result="color"/>
      <feComposite in="color" in2="inverse" operator="in" result="shadow"/>
      <feComposite in="shadow" in2="SourceGraphic"/>
    </filter>
    <linearGradient id="linear-gradient" x1="370.65" y1="18.27" x2="370.65" y2="606.91" gradientUnits="userSpaceOnUse">
      <stop offset="0" stop-color="#fdfbc2"/>
      <stop offset=".04" stop-color="#e0d393"/>
      <stop offset=".08" stop-color="#c5ad66"/>
      <stop offset=".13" stop-color="#ae8d41"/>
      <stop offset=".17" stop-color="#9d7524"/>
      <stop offset=".21" stop-color="#906310"/>
      <stop offset=".26" stop-color="#895904"/>
      <stop offset=".3" stop-color="#875600"/>
      <stop offset=".33" stop-color="#a88539"/>
      <stop offset=".37" stop-color="#d5c686"/>
      <stop offset=".4" stop-color="#f2efb6"/>
      <stop offset=".41" stop-color="#fdffc9"/>
      <stop offset=".57" stop-color="#fdf9bd"/>
      <stop offset=".6" stop-color="#d9c884"/>
      <stop offset=".64" stop-color="#b6974c"/>
      <stop offset=".67" stop-color="#9c7322"/>
      <stop offset=".69" stop-color="#8c5e09"/>
      <stop offset=".71" stop-color="#875600"/>
      <stop offset=".92" stop-color="#fdfbc2"/>
    </linearGradient>
    <linearGradient id="linear-gradient-2" x1="317.72" y1="18.27" x2="317.72" y2="606.91" xlink:href="#linear-gradient"/>
    <linearGradient id="linear-gradient-3" x1="160.24" y1="18.27" x2="160.24" y2="606.91" xlink:href="#linear-gradient"/>
    <linearGradient id="linear-gradient-4" x1="301.9" y1="18.27" x2="301.9" y2="606.91" xlink:href="#linear-gradient"/>
    <linearGradient id="linear-gradient-5" x1="194.92" y1="18.27" x2="194.92" y2="606.91" xlink:href="#linear-gradient"/>
    <linearGradient id="linear-gradient-6" x1="194.13" y1="18.27" x2="194.13" y2="606.91" xlink:href="#linear-gradient"/>
    <linearGradient id="linear-gradient-7" x1="178.04" y1="18.27" x2="178.04" y2="606.91" xlink:href="#linear-gradient"/>
    <linearGradient id="linear-gradient-8" x1="88.21" y1="18.27" x2="88.21" y2="606.91" xlink:href="#linear-gradient"/>
    <linearGradient id="linear-gradient-9" x1="170.36" y1="18.27" x2="170.36" y2="606.91" xlink:href="#linear-gradient"/>
    <linearGradient id="linear-gradient-10" x1="313.77" y1="18.27" x2="313.77" y2="606.91" xlink:href="#linear-gradient"/>
    <linearGradient id="linear-gradient-11" x1="119.26" y1="18.27" x2="119.26" y2="261.29" xlink:href="#linear-gradient"/>
    <linearGradient id="linear-gradient-12" x1="329.17" y1="18.27" x2="329.17" y2="606.91" xlink:href="#linear-gradient"/>
    <linearGradient id="linear-gradient-13" x1="214.43" y1="18.27" x2="214.43" y2="606.91" xlink:href="#linear-gradient"/>
    <linearGradient id="linear-gradient-14" x1="221.14" y1="396.36" x2="221.14" y2="469.17" xlink:href="#linear-gradient"/>
    <linearGradient id="linear-gradient-15" x1="221.14" y1="396.36" x2="221.14" y2="469.17" xlink:href="#linear-gradient"/>
    <linearGradient id="linear-gradient-16" x1="221.14" y1="396.36" x2="221.14" y2="469.17" xlink:href="#linear-gradient"/>
    <linearGradient id="linear-gradient-17" x1="54.99" y1="18.27" x2="54.99" y2="606.91" xlink:href="#linear-gradient"/>
    <linearGradient id="linear-gradient-18" x1="88.6" y1="18.27" x2="88.6" y2="606.91" xlink:href="#linear-gradient"/>
    <linearGradient id="linear-gradient-19" x1="110.57" y1="339.02" x2="110.57" y2="512.83" xlink:href="#linear-gradient"/>
    <linearGradient id="linear-gradient-20" x1="209.48" y1="350.32" x2="209.48" y2="619.39" xlink:href="#linear-gradient"/>
    <linearGradient id="linear-gradient-21" x1="159.19" y1="18.27" x2="159.19" y2="606.91" xlink:href="#linear-gradient"/>
    <linearGradient id="linear-gradient-22" x1="110.24" y1="18.27" x2="110.24" y2="449.78" xlink:href="#linear-gradient"/>
    <linearGradient id="linear-gradient-23" x1="279.74" y1="246.55" x2="279.74" y2="255.46" xlink:href="#linear-gradient"/>
    <linearGradient id="linear-gradient-24" x1="423.58" y1="18.27" x2="423.58" y2="606.91" xlink:href="#linear-gradient"/>
    <linearGradient id="linear-gradient-25" x1="581.06" y1="18.27" x2="581.06" y2="606.91" xlink:href="#linear-gradient"/>
    <linearGradient id="linear-gradient-26" x1="439.4" y1="18.27" x2="439.4" y2="606.91" xlink:href="#linear-gradient"/>
    <linearGradient id="linear-gradient-27" x1="546.37" y1="18.27" x2="546.37" y2="606.91" xlink:href="#linear-gradient"/>
    <linearGradient id="linear-gradient-28" x1="547.17" y1="18.27" x2="547.17" y2="606.91" xlink:href="#linear-gradient"/>
    <linearGradient id="linear-gradient-29" x1="563.25" y1="18.27" x2="563.25" y2="606.91" xlink:href="#linear-gradient"/>
    <linearGradient id="linear-gradient-30" x1="653.09" y1="18.27" x2="653.09" y2="606.91" xlink:href="#linear-gradient"/>
    <linearGradient id="linear-gradient-31" x1="570.94" y1="18.27" x2="570.94" y2="606.91" xlink:href="#linear-gradient"/>
    <linearGradient id="linear-gradient-32" x1="427.53" y1="18.27" x2="427.53" y2="606.91" xlink:href="#linear-gradient"/>
    <linearGradient id="linear-gradient-33" x1="412.12" y1="18.27" x2="412.12" y2="606.91" xlink:href="#linear-gradient"/>
    <linearGradient id="linear-gradient-34" x1="526.87" y1="18.27" x2="526.87" y2="606.91" xlink:href="#linear-gradient"/>
    <linearGradient id="linear-gradient-35" x1="520.16" y1="396.36" x2="520.16" y2="469.17" xlink:href="#linear-gradient"/>
    <linearGradient id="linear-gradient-36" x1="520.16" y1="396.36" x2="520.16" y2="469.17" xlink:href="#linear-gradient"/>
    <linearGradient id="linear-gradient-37" x1="520.16" y1="396.36" x2="520.16" y2="469.17" xlink:href="#linear-gradient"/>
    <linearGradient id="linear-gradient-38" x1="686.31" y1="18.27" x2="686.31" y2="606.91" xlink:href="#linear-gradient"/>
    <linearGradient id="linear-gradient-39" x1="652.7" y1="18.27" x2="652.7" y2="606.91" xlink:href="#linear-gradient"/>
    <linearGradient id="linear-gradient-40" x1="630.73" y1="339.02" x2="630.73" y2="512.83" xlink:href="#linear-gradient"/>
    <linearGradient id="linear-gradient-41" x1="531.81" y1="350.32" x2="531.81" y2="619.39" xlink:href="#linear-gradient"/>
    <linearGradient id="linear-gradient-42" x1="582.11" y1="18.27" x2="582.11" y2="606.91" xlink:href="#linear-gradient"/>
    <linearGradient id="linear-gradient-43" x1="631.06" y1="18.27" x2="631.06" y2="449.78" xlink:href="#linear-gradient"/>
    <linearGradient id="linear-gradient-44" x1="370.65" y1="18.27" x2="370.65" y2="606.91" xlink:href="#linear-gradient"/>
    <linearGradient id="linear-gradient-45" x1="370.65" y1="18.27" x2="370.65" y2="606.91" xlink:href="#linear-gradient"/>
    <linearGradient id="linear-gradient-46" x1="461.56" y1="246.55" x2="461.56" y2="255.46" xlink:href="#linear-gradient"/>
    <linearGradient id="linear-gradient-47" x1="570.43" y1="18.27" x2="570.43" y2="606.91" xlink:href="#linear-gradient"/>
    <linearGradient id="linear-gradient-48" x1="20.79" y1="18.27" x2="20.79" y2="606.91" xlink:href="#linear-gradient"/>
    <linearGradient id="linear-gradient-49" x1="84.93" y1="18.27" x2="84.93" y2="606.91" xlink:href="#linear-gradient"/>
    <linearGradient id="linear-gradient-50" x1="221.96" y1="18.27" x2="221.96" y2="606.91" xlink:href="#linear-gradient"/>
    <linearGradient id="linear-gradient-51" x1="294.65" y1="18.27" x2="294.65" y2="606.91" xlink:href="#linear-gradient"/>
    <linearGradient id="linear-gradient-52" x1="215.29" y1="18.27" x2="215.29" y2="606.91" xlink:href="#linear-gradient"/>
    <linearGradient id="linear-gradient-53" x1="508" y1="18.27" x2="508" y2="606.91" xlink:href="#linear-gradient"/>
    <linearGradient id="linear-gradient-54" x1="618.1" y1="18.27" x2="618.1" y2="606.91" xlink:href="#linear-gradient"/>
    <linearGradient id="linear-gradient-55" x1="663.95" y1="18.27" x2="663.95" y2="606.91" xlink:href="#linear-gradient"/>
    <linearGradient id="linear-gradient-56" x1="723.13" y1="18.27" x2="723.13" y2="606.91" xlink:href="#linear-gradient"/>
    <linearGradient id="linear-gradient-57" x1="448.09" y1="18.27" x2="448.09" y2="606.91" xlink:href="#linear-gradient"/>
    <linearGradient id="linear-gradient-58" x1="610.91" y1="18.27" x2="610.91" y2="606.91" xlink:href="#linear-gradient"/>
    <linearGradient id="linear-gradient-59" x1="210.62" y1="370.92" x2="210.62" y2="393.3" xlink:href="#linear-gradient"/>
    <linearGradient id="linear-gradient-60" x1="331.12" y1="18.27" x2="331.12" y2="606.91" xlink:href="#linear-gradient"/>
    <linearGradient id="linear-gradient-61" x1="410.17" y1="18.27" x2="410.17" y2="606.91" xlink:href="#linear-gradient"/>
    <linearGradient id="linear-gradient-62" x1="373.2" y1="18.27" x2="373.2" y2="606.91" xlink:href="#linear-gradient"/>
  </defs>
  <g id="Layer_1-2" data-name="Layer 1">
    <g class="cls-57">
      <path class="cls-49" d="m390.2,156.54c-.44,12.76-2.81,81.43-3.04,91.59-.02.93-.2,1.86-.61,2.69-2.66,5.3-10.26,4.46-15.89,4.46s-13.23.84-15.89-4.46c-.42-.83-.59-1.76-.62-2.69-.23-10.16-2.6-78.83-3.04-91.59-.04-1.3.45-2.56,1.38-3.48l15.74-15.7c1.34-1.34,3.51-1.34,4.85,0l15.74,15.7c.92.92,1.42,2.18,1.38,3.48Z"/>
      <path class="cls-1" d="m348.99,0s-5.26,29.05-26.73,52.03c-23.97,25.66-17.97,38.25-11.27,47.78,10.28,14.6,26.42,30.16,32.92,45.75.44,1.06.53,2.24-.09,3.21h0c-1.16,1.79-3.74,1.92-5.05.24-5.7-7.31-9.91-13.45-29.11-24.98s-29.96-35.49-18.54-55.41C307.07,40.81,322.82,44.6,348.99,0Z"/>
      <path class="cls-48" d="m300.6,16.13c0,.64-.09,1.26-.25,1.84,0,0,0,.01,0,.03-1.57,7.28-9.79,14.99-14.77,19.75-22.37,20.06-48.92,34.87-76.36,46.79-35.34,14.47-71.26,27.42-106.17,42.89-14.97,6.35-29.45,14.28-41.88,24.82-17.92,15.03-31.24,37-30.46,60.87.4,13.81,5.99,29.81,18.39,36.99.76.44.27,1.61-.58,1.39-7-1.78-13.2-6.54-17.62-12.2-17.33-22.52-12.64-55.38,3.28-77.38,12.91-18.53,31.96-31.62,52.27-40.68,11.8-5.12,24.03-9.33,36.13-13.64,31.94-11.45,64.71-20.41,95.88-33.77,22.15-9.66,58.63-29.25,74.45-49.16.79-.99.59-2.47-.47-3.15-1.66-1.06-2.78-3.07-2.78-5.38,0-3.41,2.45-6.18,5.48-6.18s5.47,2.77,5.47,6.18Z"/>
      <path class="cls-56" d="m326.18,193.82h0c7.19-17.4,5.65-35.53-7.66-47.57-6.96-6.3-18.92-11.95-24.21-14.61s-8.08-4.07-12.01-6.81c-4.11-2.73-5.49-3.7-9.97-1.88-.3.12-.61-.14-.54-.46.78-3.31,3.89-16.53,5.19-22.05.1-.44.74-.39.78.06,1.39,14.76,4.37,17.56,7.42,20.55,2.99,2.87,6.76,5.33,11.21,7.68s16.85,9.06,22.99,13.78c9.62,7.38,14.95,24.37,11.63,38.61-1.04,4.47-2.55,8.78-4.84,12.7Z"/>
      <path class="cls-39" d="m273.81,75.42c-18.77,61.19-89.37,9.66-155.38,59.17-5.54,3.82-3.31,6.24,1.93,7.31,2.43.88,20.28,5.12,25.73,11.11,15.61,11.59,16.24,45.42-5.91,63.78-6.77,5.61-12.6,8.21-22.25,9.09,30.25-.15,46.59-33.05,44.04-58.98-.13-1.3-.22-2.61-.3-3.92-.07-1.02-.18-2.23-.39-3.61-.62-4.14-2.19-10.62-6.13-18-1.11-2.07-.98-4.24.36-6.45,1.84-3,5.89-6.09,12.06-9.17,5.31-2.65,12.24-5.29,20.04-7.64,7.19-2.16,14.85-3.99,21.64-5.23,4.06-.74,8.18-1.18,12.31-1.33,13.19-.48,23.81-.28,27.74-.34,4.74.64,9.42,2.2,9.17,7.73-.26,5.53-2.75,11.54-7.98,11.31-4.49-.2-4.84-4.03-4.77-5.73.02-.5-.26-.97-.7-1.21-3.24-.8-1.8,4.15-1.05,5.82,1.43,2.87,8.71,6.86,14.87-.46,5.23-6.22,2.86-12.1,7.69-24.4,4.4-11.22,6.83-21.7,8.11-28.67.1-.52-.66-.7-.82-.19Zm-86.33,42.31c-7.82,2.35-14.77,5-20.1,7.66-6.24,3.11-10.35,6.25-12.23,9.32-1.43,2.34-1.56,4.65-.38,6.86,3.91,7.32,5.47,13.75,6.09,17.85,0,0,0,.01,0,.02.02.13-.17.16-.2.04-2.56-9.8-8.31-17.81-17.58-21.39-2.36-.91-2.59-3.71-.93-5.82,10.61-13.58,41.44-18.41,67.58-20.12.14,0,.16.19.03.22-6.95,1.24-14.87,3.12-22.28,5.35Z"/>
      <g>
        <path class="cls-18" d="m83.77,233.46h0s.03.02,0,0Zm208.65-69.25h0c-1.22-1.29-2.47-2.51-3.75-3.64l-.27.31c28.54,24.02,15.26,73.52-22.45,74.49-12.15-.09-24.88-5.88-30.73-16.67-.38-.74.25-1.6,1.06-1.45,3.08.63,6.05-1.89,5.96-5.03-.05-2.66-2.29-4.89-4.95-4.93-2.78-.04-5.07,2.18-5.1,4.95.01,1.54.41,2.87,1.11,4.67,5.65,12.15,19.34,19.11,32.64,19.16,35.26-.04,51.45-47.09,26.49-71.85Z"/>
        <path class="cls-43" d="m208.19,161.87c-2.78,2.21-6.11,3.8-9.85,5.54h0c-10.09,4.62-17.77,8.92-26.26,19.08-2.49,3-4.78,6.1-6.97,9.52-3.64,5.64-7.01,12.15-10.58,20.57-7.83,18.62-46.62,29.44-68.59,17.34-10.99-5.98-16.74-16.68-18.01-28.16l-.51.05c1.6,14.53,8.75,24.82,21.09,30.05,5.29,2.3,10.92,3.56,16.66,3.89h0c16.18,1.26,35.48-6.66,52.24-15.52,12.77-6.07,22.64-13.58,32.25-26.61,11.14-14.95,12.64-26.57,20.17-33.22,23.88-21.07,58.42-21.26,78.55-3.5l.27-.31c-23.52-20.98-59.5-15.49-80.47,1.29Zm-51.76,60.28s0,0-.01,0c-1.09.45-2.15-.71-1.61-1.76,2.57-5.57,5.32-11.23,8.38-16.7.19-.34.71-.17.67.21-.05.56-.09,1.13-.13,1.7-.11,1.53-.22,3.12-.64,4.94-1.15,5-3.24,8.31-4.75,10.18-.5.62-1.15,1.11-1.89,1.42Zm14.76-9c-3.39,2.62-7.01,5.06-10.57,6.98-.39.21-.8-.24-.55-.61,1.33-2.01,2.76-4.9,3.66-8.82.43-1.87.54-3.48.65-5.04,0-.09.01-.18.02-.27.21-2.97,1.15-5.86,2.76-8.38,4.75-7.45,10.25-14.28,16.94-19.71.35-.29.84.14.6.52-1.96,3.14-4.01,7.41-4.34,11.88-.15,1.97-.16,3.69-.16,5.21v.14c-.04,7.1-3.39,13.77-9.01,18.1Zm24.18-33.4c.11,3.45-.87,6.84-2.68,9.77-1.96,3.17-3.82,5.96-5.41,8.12-1.48,2.01-3.9,4.69-6.88,7.56-.46.45-1.2-.05-.95-.65,1.41-3.5,1.43-6.22,1.45-9.63,0-1.5.01-3.22.16-5.16.25-3.41,1.54-6.71,3-9.45,2.08-3.89,5.3-7.04,9.2-9.11.77-.41,1.55-.8,2.34-1.17.34-.16.68.19.54.54-1.03,2.45-.91,5.45-.8,8.2l.03.89v.1Zm7.77-9.06c-2.07,4.15-4.32,8.35-6.57,12.27-.19.33-.69.16-.64-.22.11-.96.16-1.99.12-3.11l-.03-.89c-.14-3.59-.3-7.28,1.87-9.72h0c.85-.35,1.71-.68,2.59-.99,1.7-.82,3.5.98,2.65,2.67Z"/>
        <path class="cls-58" d="m104.45,167.75c-3.72-.01-5.7-3.55-4.63-6.35.39-1.01-.43-2.08-1.5-1.89-21.12,3.73-32.6,26.18-30.39,46.24l-.51.05c-.23-2.07-.35-4.22-.36-6.46,0-22.64,16.83-41.07,37.51-41.07v.08c6.44.36,6.33,9.17-.12,9.4Z"/>
      </g>
      <path class="cls-45" d="m255.96,252.1c0,.62-.32,1.16-.79,1.48-.28.19-.62.3-.99.3-.45.06-.89.11-1.34.15-.21.02-.43.04-.64.06-15.17,1.27-27.94-6.51-37.58-18.52-3.27-4.02-6.42-9.24-9.18-14.62-2.16-4.21-7.7-5.26-11.22-2.09-1.34,1.22-2.61,2.33-3.62,3.19-28.58,24.32-55.55,30.46-80.4,32.21-4.75.33-15.02.67-20.05.61-1.18-.01-2.3-.05-3.31-.12-1.19,0-2.15-1-2.07-2.21.06-1.03.9-1.88,1.94-1.94,1.21-.08,2.21.88,2.21,2.07,0,.36-.09.7-.25.99-.2.36.05.8.46.81.86.02,1.89.04,2.38.04,6.08-.1,13.91-.58,18.66-.99,29.6-2.52,54.96-10.69,80.14-35.42,4.47-4.23,8.65-8.91,12.91-14.37.63-.82,1.92-.47,2.07.55.45,3.2,1.15,6.52,1.72,8.61,4.6,16.7,13.51,31.7,30.73,38.64,4.49,1.76,8.34,2.42,12.82,2.44.26,0,.97-.04,1.64-.07.47-.03.7-.55.43-.94,0,0,0,0,0-.01-.14-.25-.22-.54-.22-.85,0-.99.8-1.79,1.79-1.79s1.78.8,1.78,1.79Z"/>
      <path class="cls-28" d="m348.4,174.27v50.41l-1.32-20.49s-.75-5.36-3.85-4.61c-3.1.75-7.33,5.8-7.33,5.8l-31.96,34.48s-2.63,2.87-2.03,5.59c1.22,5.55,7.68,4.23,33.25,5.55.47.02-40.13.01-55.37,0-.02,0-.05,0-.07,0-.31-.02-.56-.28-.56-.59,0-.02,0-.03,0-.04.02-.26.22-.47.48-.52.04,0,.08-.02.12-.03h0c4.32-.93,11.85-1.65,18.37-7.38,16.29-14.3,40.09-42.35,41.93-45.84,1.41-2.68,5.79-8.06,7.71-22.36,0-.01,0-.03,0-.04,0,0,0,0,0,0,.03-.15.16-.26.32-.26.18,0,.33.15.33.33Z"/>
      <path class="cls-25" d="m120.34,355.82c-.71.02-1.43.03-2.17.03,1.25-.01,2.01-.03,2.17-.03Z"/>
      <path class="cls-21" d="m329.74,467.16s-.46.96-1.13,2.35c.41-.78.78-1.56,1.13-2.35h0Z"/>
      <path class="cls-2" d="m213.58,455.91c.55.48,1.11.95,1.7,1.43-.05-.04-.7-.53-1.7-1.43Z"/>
      <polygon class="cls-3" points="221.14 432.78 221.14 432.78 221.13 432.77 221.14 432.78"/>
      <path class="cls-9" d="m221.13,432.77h0s0,0,0,0h0Z"/>
      <polygon class="cls-32" points="221.14 432.78 221.14 432.78 221.13 432.77 221.14 432.78"/>
      <path class="cls-7" d="m88.82,388.83c0,.16-.1.59-.18.91,0,0,0,0,0,0-.04.17-.07.31-.09.35,0,0,0,0,0,.01-.25.94-.67,1.87-1.28,2.74-2.33,3.35-6.47,4.5-9.24,2.58s-3.12-6.21-.79-9.56c1.35-1.93,3.29-3.13,5.22-3.44,2.69-.42,4.47-2.99,3.91-5.65-.3-1.43-.86-2.79-1.73-4.01-1.02-1.45-2.43-2.6-4-3.39-4.23-2.05-8.88-3.51-13.6-3.59-.02,0-.04,0-.05,0-2.33-.04-3.9,2.36-2.95,4.49,1.83,4.07,2.45,8.67,1.69,13.13-1.15,7.56-5.67,13.66-13.1,15.97-2.57.8-5.23,1.1-7.9.92-1.24-.13-2.45-.42-3.63-.81-3.24-1.06-5.78-2.57-8.08-6.74-.03-.05-.06-.1-.08-.15,0,0,0,0,0,0-.13-.25-.23-.51-.3-.79h0c-.09-.33-.13-.67-.13-1.03,0-1.98,1.42-3.59,3.17-3.59s3.17,1.61,3.17,3.59c0,1.49-.8,2.76-1.93,3.31,0,0,0,0-.01,0-.57.27-.67,1.03-.18,1.44,2.15,1.76,5.22,2.39,7.95,2.44.05,0,.16,0,.21,0,.02,0,0,0,.01,0l.25-.02c4.83-.33,9.66-2.38,12.63-6.2,2.02-2.55,3.05-5.75,3.37-8.97.62-5.43-1.11-10.86-4.87-14.78-.28-.29-.57-.57-.87-.85-1.22-1.12-2.58-2.09-4.05-2.86-1.6-.84-3.32-1.44-5.1-1.72-4.08-.57-8.37.37-11.95,2.37-4.56,2.52-7.63,6.98-8.62,12.12-.39,1.95-.57,3.97-.44,5.96.19,3.32,1.36,6.56,3.32,9.26,2.65,3.7,6.59,6.53,10.75,8.53.22.1.61.28,1.03.46.24.1.12.46-.13.41-5.18-1.17-10.33-3.7-13.87-7.6-3.25-3.54-5.06-8.22-5.23-13.01-.2-4.82.85-9.74,3.49-13.84,4.33-6.79,12.57-10.65,20.55-10.23.06,0,.13,0,.19.01.43.03.86.07,1.28.12.86.1,1.72.21,2.58.29,2.66.26,4.97.53,6.58.95,1.93.51,4.2,1.07,5.79,1.68,1.82.69,3.66,1.4,5.46,2.14,4.99,2.12,9.32,4.37,13.97,6.81.56.32,1.37.82,1.88,1.22.94.72,1.79,1.57,2.51,2.51,3.47,4.66,3.71,10.52,3.45,16.11Z"/>
      <path class="cls-11" d="m88.64,389.74c-.03.12-.05.24-.09.35.01-.04.04-.18.09-.35Z"/>
      <path class="cls-55" d="m110.69,425.94h-.06c-.06,0-.12,0-.19-.02.08,0,.16.01.24.02Z"/>
      <path class="cls-17" d="m209.7,484.89c-.15-.02-.29-.03-.43-.03.15,0,.29.02.43.03Z"/>
      <path class="cls-37" d="m221.33,495.89c-.11,3.63-1.61,7.32-4.44,9.67-4.88,4-11.79,3.13-17.44,1.48-5.82-1.74-11.06-5.14-15.31-9.45-3.41-3.45-6.55-7.84-8.93-11.79s-4.58-8.4-7.33-14.98-7.96-17.05-10.97-23.75-8.02-15.67-11.22-19.99-10.44-14.08-22.02-20.72c-.77-.44-1.54-.87-2.34-1.25-1.34-.59-2.76-.99-4.2-1.33-7.57-1.75-19.04-1.52-19.65,8.54-.37,5.15,2.03,9.24,6.65,11.5.44.22.88.41,1.33.59.75.3,1.55-.35,1.41-1.14-.02-.14-.04-.28-.04-.42,0-1.7,1.84-3.09,4.11-3.09s4.1,1.38,4.1,3.09-1.84,3.09-4.1,3.09c-.08,0-.17,0-.25,0-.08,0-.16,0-.24-.02-.14-.02-.28-.04-.42-.05-4.53-.62-9.02-2.45-11.43-6.53-1.25-2.11-1.68-4.62-1.54-7.04.12-2.44,1-4.92,2.79-6.64,4.35-4.12,11.95-3.78,17.45-2.7,1.78.38,3.93,1.1,5.24,1.67,12.67,5.52,22.01,15.11,26.46,21.5s7.46,11.34,11.22,19.87c3.76,8.52,8.27,18.99,10.28,24.13s5.06,12.8,5.4,13.6c5.51,12.47,16.65,23.04,30.7,24.16,3.51.27,7.27-.33,10.04-2.63,2.76-2.26,4.23-5.86,4.34-9.38.13-4.88-3.36-8.22-7.65-9.76,0,0,0,0,0,0-.36-.13-.68.26-.49.6.22.37.33.79.33,1.22,0,1.7-1.84,3.09-4.11,3.09s-4.1-1.38-4.1-3.09,1.84-3.09,4.1-3.09c.07,0,.13,0,.2,0,0,0,0,0,.01,0,.14,0,.28.02.43.03,1.86.18,4.3.92,6.25,2.04,3.24,1.8,5.52,5.17,5.38,8.95Z"/>
      <path class="cls-46" d="m110.44,425.93c-.14-.01-.28-.03-.42-.05.14.02.28.04.42.05Z"/>
      <path class="cls-54" d="m279.77,251s-.02,0-.04,0-.02,0-.04,0c.02,0,.05,0,.07,0Z"/>
      <path class="cls-44" d="m392.31,0s5.26,29.05,26.73,52.03c23.97,25.66,17.97,38.25,11.27,47.78-10.28,14.6-26.42,30.16-32.92,45.75-.44,1.06-.53,2.24.09,3.21h0c1.16,1.79,3.74,1.92,5.05.24,5.7-7.31,9.91-13.45,29.11-24.98,19.2-11.52,29.96-35.49,18.54-55.41-15.94-27.81-31.7-24.02-57.87-68.62Z"/>
      <path class="cls-38" d="m440.7,16.13c0,.64.09,1.26.25,1.84,0,0,0,.01,0,.03,1.57,7.28,9.79,14.99,14.77,19.75,22.37,20.06,48.92,34.87,76.36,46.79,35.34,14.47,71.26,27.42,106.17,42.89,14.97,6.35,29.45,14.28,41.88,24.82,17.92,15.03,31.24,37,30.46,60.87-.4,13.81-5.99,29.81-18.39,36.99-.76.44-.27,1.61.58,1.39,7-1.78,13.2-6.54,17.62-12.2,17.33-22.52,12.64-55.38-3.28-77.38-12.91-18.53-31.96-31.62-52.27-40.68-11.8-5.12-24.03-9.33-36.13-13.64-31.94-11.45-64.71-20.41-95.88-33.77-22.15-9.66-58.63-29.25-74.45-49.16-.79-.99-.59-2.47.47-3.15,1.66-1.06,2.78-3.07,2.78-5.38,0-3.41-2.45-6.18-5.48-6.18s-5.47,2.77-5.47,6.18Z"/>
      <path class="cls-63" d="m415.12,193.82h0c-7.19-17.4-5.65-35.53,7.66-47.57,6.96-6.3,18.92-11.95,24.21-14.61s8.08-4.07,12.01-6.81c4.11-2.73,5.49-3.7,9.97-1.88.3.12.61-.14.54-.46-.78-3.31-3.89-16.53-5.19-22.05-.1-.44-.74-.39-.78.06-1.39,14.76-4.37,17.56-7.42,20.55-2.99,2.87-6.76,5.33-11.21,7.68-4.46,2.36-16.85,9.06-22.99,13.78-9.62,7.38-14.95,24.37-11.63,38.61,1.04,4.47,2.55,8.78,4.84,12.7Z"/>
      <path class="cls-50" d="m466.67,75.62c1.28,6.97,3.71,17.45,8.11,28.67,4.83,12.3,2.45,18.18,7.69,24.4,6.16,7.32,13.44,3.33,14.87.46.76-1.67,2.19-6.61-1.05-5.82-.44.24-.72.71-.7,1.21.07,1.7-.28,5.53-4.77,5.73-5.22.23-7.72-5.78-7.98-11.31-.26-5.53,4.43-7.1,9.17-7.73,3.93.06,14.54-.14,27.74.34,4.13.15,8.24.59,12.31,1.33,6.78,1.24,14.45,3.07,21.64,5.23,7.79,2.34,14.72,4.99,20.04,7.64,6.17,3.08,10.22,6.16,12.06,9.17,1.35,2.21,1.47,4.37.36,6.45-3.94,7.38-5.51,13.87-6.13,18-.21,1.37-.32,2.58-.39,3.61-.08,1.31-.18,2.61-.3,3.92-2.55,25.93,13.79,58.82,44.04,58.98-9.66-.88-15.48-3.47-22.25-9.09-22.15-18.36-21.52-52.19-5.91-63.78,5.45-5.99,23.3-10.23,25.73-11.11,5.24-1.07,7.47-3.5,1.93-7.31-66.01-49.51-136.61,2.02-155.38-59.17-.16-.51-.91-.33-.82.19Zm64.87,36.76c-.14-.02-.11-.23.03-.22,26.14,1.71,56.97,6.53,67.58,20.12,1.65,2.11,1.43,4.91-.93,5.82-9.27,3.58-15.02,11.59-17.58,21.39-.03.12-.22.09-.2-.04,0,0,0-.01,0-.02.62-4.1,2.17-10.53,6.09-17.85,1.18-2.21,1.05-4.52-.38-6.86-1.88-3.07-5.99-6.21-12.23-9.32-5.34-2.66-12.29-5.31-20.1-7.66-7.41-2.23-15.33-4.11-22.28-5.35Z"/>
      <g>
        <path class="cls-15" d="m657.53,233.47h0s-.02.01,0,0Zm-182.17,2.59c13.3-.05,26.99-7.01,32.64-19.16.7-1.79,1.1-3.13,1.11-4.67-.03-2.77-2.32-4.99-5.1-4.95-2.66.04-4.89,2.27-4.95,4.93-.1,3.14,2.87,5.66,5.96,5.03.82-.15,1.45.71,1.06,1.45-5.85,10.79-18.58,16.59-30.73,16.67-37.71-.98-50.99-50.47-22.45-74.49l-.27-.31c-1.28,1.13-2.54,2.35-3.75,3.65h0c-24.97,24.75-8.77,71.8,26.49,71.84Z"/>
        <path class="cls-52" d="m452.64,160.57l.27.31c20.13-17.77,54.68-17.58,78.55,3.5,7.52,6.65,9.02,18.27,20.17,33.22,9.61,13.03,19.49,20.54,32.25,26.61,16.76,8.86,36.06,16.78,52.24,15.51h0c5.74-.32,11.37-1.58,16.66-3.88,12.35-5.22,19.49-15.51,21.09-30.05l-.51-.05c-1.26,11.48-7.01,22.19-18.01,28.16-21.97,12.1-60.76,1.28-68.59-17.34-3.57-8.42-6.94-14.93-10.58-20.57-2.2-3.41-4.49-6.51-6.97-9.52-8.49-10.16-16.17-14.46-26.26-19.07h0c-3.73-1.75-7.07-3.33-9.85-5.54-20.97-16.78-56.95-22.27-80.47-1.29Zm130.34,60.16c-1.52-1.88-3.61-5.18-4.75-10.18-.42-1.82-.53-3.41-.64-4.94-.04-.57-.08-1.13-.13-1.7-.04-.38.47-.55.67-.21,3.06,5.47,5.81,11.12,8.38,16.7.54,1.05-.52,2.21-1.61,1.76t-.01,0c-.74-.31-1.39-.8-1.89-1.42Zm-21.89-25.68v-.14c0-1.52-.01-3.24-.16-5.21-.34-4.47-2.38-8.74-4.34-11.88-.23-.38.25-.81.6-.52,6.69,5.43,12.2,12.26,16.94,19.71,1.61,2.51,2.54,5.4,2.76,8.38,0,.09.01.18.02.27.11,1.56.22,3.17.65,5.04.9,3.92,2.34,6.81,3.66,8.82.25.37-.16.82-.55.61-3.56-1.92-7.17-4.36-10.57-6.98-5.63-4.33-8.97-10.99-9.01-18.1Zm-15.17-15.4l.03-.89c.12-2.76.23-5.76-.8-8.2-.14-.34.19-.69.54-.54.79.38,1.57.77,2.34,1.17,3.9,2.07,7.12,5.22,9.2,9.11,1.46,2.74,2.75,6.03,3,9.45.15,1.94.16,3.66.16,5.16.02,3.41.04,6.13,1.45,9.63.24.6-.49,1.1-.95.65-2.99-2.88-5.4-5.56-6.88-7.56-1.59-2.16-3.45-4.95-5.41-8.12-1.81-2.93-2.79-6.32-2.68-9.77v-.1Zm-5.12-11.63c.88.31,1.74.64,2.59.99h0c2.16,2.45,2.01,6.14,1.87,9.72l-.03.89c-.04,1.12.01,2.16.12,3.11.05.38-.45.55-.64.22-2.25-3.92-4.49-8.12-6.57-12.27-.85-1.69.95-3.49,2.65-2.67Z"/>
        <path class="cls-53" d="m636.84,167.75c3.72-.01,5.7-3.55,4.63-6.35-.39-1.01.43-2.08,1.5-1.89,21.12,3.73,32.6,26.18,30.39,46.24l.51.05c.23-2.07.35-4.22.36-6.46,0-22.64-16.83-41.07-37.51-41.07v.08c-6.44.36-6.33,9.17.12,9.4Z"/>
      </g>
      <path class="cls-33" d="m485.34,252.1c0,.62.32,1.16.79,1.48.28.19.62.3.99.3.45.06.89.11,1.34.15.21.02.43.04.64.06,15.17,1.27,27.94-6.51,37.58-18.52,3.27-4.02,6.42-9.24,9.18-14.62,2.16-4.21,7.7-5.26,11.22-2.09,1.34,1.22,2.61,2.33,3.62,3.19,28.58,24.32,55.55,30.46,80.4,32.21,4.75.33,15.02.67,20.05.61,1.18-.01,2.3-.05,3.31-.12,1.19,0,2.15-1,2.07-2.21-.06-1.03-.9-1.88-1.94-1.94-1.21-.08-2.21.88-2.21,2.07,0,.36.09.7.25.99.2.36-.05.8-.46.81-.86.02-1.89.04-2.38.04-6.08-.1-13.91-.58-18.66-.99-29.6-2.52-54.96-10.69-80.14-35.42-4.47-4.23-8.65-8.91-12.91-14.37-.63-.82-1.92-.47-2.07.55-.45,3.2-1.15,6.52-1.72,8.61-4.6,16.7-13.51,31.7-30.73,38.64-4.49,1.76-8.34,2.42-12.82,2.44-.26,0-.97-.04-1.64-.07-.47-.03-.7-.55-.43-.94,0,0,0,0,0-.01.14-.25.22-.54.22-.85,0-.99-.8-1.79-1.79-1.79s-1.78.8-1.78,1.79Z"/>
      <path class="cls-24" d="m392.9,174.27v50.41s1.32-20.49,1.32-20.49c0,0,.75-5.36,3.85-4.61,3.1.75,7.33,5.8,7.33,5.8l31.96,34.48s2.63,2.87,2.03,5.59c-1.22,5.55-7.68,4.23-33.25,5.55-.47.02,40.13.01,55.37,0,.02,0,.05,0,.07,0,.31-.02.56-.28.56-.59,0-.02,0-.03,0-.04-.02-.26-.22-.47-.48-.52-.04,0-.08-.02-.12-.03h0c-4.32-.93-11.85-1.65-18.37-7.38-16.29-14.3-40.09-42.35-41.93-45.84-1.41-2.68-5.79-8.06-7.71-22.36,0-.01,0-.03,0-.04,0,0,0,0,0,0-.03-.15-.16-.26-.32-.26-.18,0-.33.15-.33.33Z"/>
      <path class="cls-22" d="m411.56,467.16h0c.35.79.72,1.57,1.13,2.35-.67-1.38-1.13-2.35-1.13-2.35Z"/>
      <path class="cls-4" d="m527.72,455.91c-.55.48-1.11.95-1.7,1.43.05-.04.7-.53,1.7-1.43Z"/>
      <polygon class="cls-5" points="520.16 432.78 520.16 432.78 520.16 432.77 520.16 432.78"/>
      <path class="cls-16" d="m520.16,432.78h0s0,0,0,0h0Z"/>
      <polygon class="cls-31" points="520.16 432.78 520.16 432.78 520.16 432.77 520.16 432.78"/>
      <path class="cls-51" d="m652.48,388.83c0,.16.1.59.18.91,0,0,0,0,0,0,.04.17.07.31.09.35,0,0,0,0,0,.01.25.94.67,1.87,1.28,2.74,2.33,3.35,6.47,4.5,9.24,2.58s3.12-6.21.79-9.56c-1.35-1.93-3.29-3.13-5.22-3.44-2.69-.42-4.47-2.99-3.91-5.65.3-1.43.86-2.79,1.73-4.01,1.02-1.45,2.43-2.6,4-3.39,4.23-2.05,8.88-3.51,13.6-3.59.02,0,.04,0,.05,0,2.33-.04,3.9,2.36,2.95,4.49-1.83,4.07-2.45,8.67-1.69,13.13,1.15,7.56,5.67,13.66,13.1,15.97,2.57.8,5.23,1.1,7.9.92,1.24-.13,2.45-.42,3.63-.81,3.24-1.06,5.78-2.57,8.08-6.74.03-.05.06-.1.08-.15,0,0,0,0,0,0,.13-.25.23-.51.3-.79h0c.09-.33.13-.67.13-1.03,0-1.98-1.42-3.59-3.17-3.59s-3.17,1.61-3.17,3.59c0,1.49.8,2.76,1.93,3.31,0,0,0,0,.01,0,.57.27.67,1.03.18,1.44-2.15,1.76-5.22,2.39-7.95,2.44-.05,0-.16,0-.21,0-.02,0,0,0-.01,0l-.25-.02c-4.83-.33-9.66-2.38-12.63-6.2-2.02-2.55-3.05-5.75-3.37-8.97-.62-5.43,1.11-10.86,4.87-14.78.28-.29.57-.57.87-.85,1.22-1.12,2.58-2.09,4.05-2.86,1.6-.84,3.32-1.44,5.1-1.72,4.08-.57,8.37.37,11.95,2.37,4.56,2.52,7.63,6.98,8.62,12.12.39,1.95.57,3.97.44,5.96-.19,3.32-1.36,6.56-3.32,9.26-2.65,3.7-6.59,6.53-10.75,8.53-.22.1-.61.28-1.03.46-.24.1-.12.46.13.41,5.18-1.17,10.33-3.7,13.87-7.6,3.25-3.54,5.06-8.22,5.23-13.01.2-4.82-.85-9.74-3.49-13.84-4.33-6.79-12.57-10.65-20.55-10.23-.06,0-.13,0-.19.01-.43.03-.86.07-1.28.12-.86.1-1.72.21-2.58.29-2.66.26-4.97.53-6.58.95-1.93.51-4.2,1.07-5.79,1.68-1.82.69-3.66,1.4-5.46,2.14-4.99,2.12-9.32,4.37-13.97,6.81-.56.32-1.37.82-1.88,1.22-.94.72-1.79,1.57-2.51,2.51-3.47,4.66-3.71,10.52-3.45,16.11Z"/>
      <path class="cls-27" d="m652.66,389.74c.03.12.05.24.09.35-.01-.04-.04-.18-.09-.35Z"/>
      <path class="cls-13" d="m630.61,425.94h.06c.06,0,.12,0,.19-.02-.08,0-.16.01-.24.02Z"/>
      <path class="cls-36" d="m531.6,484.89c.15-.02.29-.03.43-.03-.15,0-.29.02-.43.03Z"/>
      <path class="cls-47" d="m519.97,495.89c.11,3.63,1.61,7.32,4.44,9.67,4.88,4,11.79,3.13,17.44,1.48,5.82-1.74,11.06-5.14,15.31-9.45,3.41-3.45,6.55-7.84,8.93-11.79s4.58-8.4,7.33-14.98,7.96-17.05,10.97-23.75,8.02-15.67,11.22-19.99,10.44-14.08,22.02-20.72c.77-.44,1.54-.87,2.34-1.25,1.34-.59,2.76-.99,4.2-1.33,7.57-1.75,19.04-1.52,19.65,8.54.37,5.15-2.03,9.24-6.65,11.5-.44.22-.88.41-1.33.59-.75.3-1.55-.35-1.41-1.14.02-.14.04-.28.04-.42,0-1.7-1.84-3.09-4.11-3.09s-4.1,1.38-4.1,3.09,1.84,3.09,4.1,3.09c.08,0,.17,0,.25,0,.08,0,.16,0,.24-.02.14-.02.28-.04.42-.05,4.53-.62,9.02-2.45,11.43-6.53,1.25-2.11,1.68-4.62,1.54-7.04-.12-2.44-1-4.92-2.79-6.64-4.35-4.12-11.95-3.78-17.45-2.7-1.78.38-3.93,1.1-5.24,1.67-12.67,5.52-22.01,15.11-26.46,21.5-4.45,6.39-7.46,11.34-11.22,19.87s-8.27,18.99-10.28,24.13-5.06,12.8-5.4,13.6c-5.51,12.47-16.65,23.04-30.7,24.16-3.51.27-7.27-.33-10.04-2.63-2.76-2.26-4.23-5.86-4.34-9.38-.13-4.88,3.36-8.22,7.65-9.76,0,0,0,0,0,0,.36-.13.68.26.49.6-.22.37-.33.79-.33,1.22,0,1.7,1.84,3.09,4.11,3.09s4.1-1.38,4.1-3.09-1.84-3.09-4.1-3.09c-.07,0-.13,0-.2,0,0,0,0,0-.01,0-.14,0-.28.02-.43.03-1.86.18-4.3.92-6.25,2.04-3.24,1.8-5.52,5.17-5.38,8.95Z"/>
      <path class="cls-8" d="m630.85,425.93c.14-.01.28-.03.42-.05-.14.02-.28.04-.42.05Z"/>
      <path class="cls-59" d="m383.97,367.82v93.39c0,7.34-6,13.45-13.34,13.43s-13.3-5.97-13.3-13.32v-73.61c0-.42.22-.81.58-1.03,10.99-6.53,19.03-14.23,23.97-19.67.74-.81,2.09-.29,2.09.81Z"/>
      <path class="cls-41" d="m372.97,548.06v-47.47l-.03-.24c1.71-.85,2.89-2.61,2.89-4.65,0-1.07-.32-2.06-.88-2.89-.71-1.05-1.8-1.83-3.07-2.15-.4-.1-.81-.15-1.24-.15s-.84.05-1.24.15c-1.27.31-2.36,1.09-3.07,2.15-.56.83-.88,1.82-.88,2.89,0,2.04,1.18,3.8,2.89,4.65l-.03.24v47.47c-5.36-24.16-27.26-48.88-27.26-48.88,9.68-7.8,16.26-28.86,16.26-28.86,5.83,7.85,13.32,7.05,13.32,7.05,0,0,7.49.8,13.32-7.05,0,0,6.58,21.06,16.26,28.86,0,0-21.9,24.72-27.26,48.88Z"/>
      <path class="cls-62" d="m461.53,251s.02,0,.04,0,.02,0,.04,0c-.02,0-.05,0-.07,0Z"/>
      <path class="cls-61" d="m675.82,345.66c-8.27,2.59-29.42,12.45-53.42,14.37,9.27.21,15-.48,33-4.18.28-.06.41.34.16.48-4.41,2.43-9.29,4.67-12.47,6.05s-12.53,5.24-20.9,5.15l-19.01.48c-.3,0-.42.38-.19.56,1.03.82,2.85,2.45,3.39,4.06.77,2.29,1.28,5.22,1.43,7.15.11,1.47.67,2.99,3.51,3.09,2.84.09,3.56-1.13,4.84-2.38,1.29-1.25,7.36-8.66,8.79-9.75,1.43-1.08,2.38-1.75,3.98-2.24,1.6-.49,3.37-.96,3.7,0,.33.96-.87,1.72-1.63,2.46,0,0,0,0,0,0-8.58,6.5-14.78,12.04-16.96,13.99-.19.16-.41.36-.66.6-1.17.67-2.33,1.21-3.22,1.35-2.76.44-4.46-.14-5.26-1.44-.8-1.3-.46-5.98-2.32-11.59-2.26-6.83-9.59-11.95-21.83-10.19-13.94,2-19.5,15.76-20.58,19.01-2.17,6.58-1.69,16.42,3.28,18.28,1.83.68,2.51.78,4.93.85,2.93.03,3.53-.52,3.99-1.01s.71-1.36.71-2.18c0-1.63-1.26-3.13-2.8-3.13s-2.8,1.51-2.8,3.13c0,.3.04.6.13.87.18.61-.26,1.23-.81,1.15-1.83-.26-4.89-1.37-5.88-4.72-2.13-7.22.54-12.51,3.51-17.55,2.89-4.91,11.72-14.46,23.81-12.16,9.25,1.76,12.85,9.59,12.22,17.67-.63,8.11-3.82,13.1-5.08,15.04-.84,1.31-10.78,12.02-17.18,18.88-13.17,11.97-26.83,24.15-35.15,30.88-10.15,8.21-18.68,14.53-27.01,19.73-.46.11-.91.22-1.33.31-1.38.3-2.52-1.1-1.93-2.39,2.1-4.65,6.32-13.43,9.75-16.83,12.02-11.94,9.71-25.82,9.71-25.82-.41,9.06-6.04,18.6-7.04,19.97-.26.36-.66.92-1.17,1.48-.48.53-1.62-.04-1.37-.72l.29-1.37s3.49-12.63,4.94-19.58c1.44-6.96,2.82-20.65,2.95-21.78.26-2.26,2.13-1.69,2.51-.91.38.78,7.02,15.26,7.8,25.41,1.16,15.03-9.21,25.95-13.4,29.72,14.44-12.55,15.33-24.42,15.06-29.5-.28-5.26-2.01-10.72-8.12-27.95-1.94-5.47-1.29-16.92,4.89-25.26,4.47-6.04,3.26-6.02,17.11-15.32,13.85-9.31,44.37-4.39,44.37-4.39-10.65-2.62-19.59-3.23-27-2.7h0s-12.9.41-22.3,3.95c-8.59,3.24-22.92,1.32-29.27-1.82-6.35-3.14-20.53-9.87-31.56-12-10.49-2.03-27.48-3.16-39.55,6.61-9.3,7.54-20.49,22.25-11.88,41.58,8.62,19.33,26.51,19.62,32.59,18.8,6.08-.81,13.03-4.23,16.67-10.55-.15.22-3.58,4.88-12.03,4.88-5.17,0-13.9-4.5-20.21-14.85-4.46-7.32-5.47-14.37-4.2-20.58.26-1.27,2.06-1.32,2.38-.06.34,1.33.77,2.8,1.3,4.47,1.39,4.37,4.27,8.19,7.84,11.08,1.75,1.42,6.09,4.47,11.15,4.47s8.65-1.32,12.25-3.92c4.82-3.49,6.93-10.07,6.98-12.42,0-.03,0-.06,0-.09,0-1.62-1.21-2.93-2.71-2.93s-2.71,1.31-2.71,2.93,1.21,2.93,2.71,2.93c.12,0,.24,0,.36-.03.62-.09,1.1.51.89,1.09-.9,2.48-2.61,5.63-5.81,7.94-4.6,3.32-6.58,3.74-11.83,3.75-5.11,0-9.32-3.72-10.51-4.85-2.99-2.83-8.16-8.96-7.96-19.08.08-3.82,1.52-6.91,3.5-9.36,5.44-5.4,12.83-8.75,19.86-8.97,15.49-.5,30.38,4.93,44.42,13.91.62.4,4.01,2.23,5.83,5.31,4.05,6.85.22,17.76-6.64,21.99-9.95,6.13-17.96,7.96-23.44,11.81-3.5,2.46-8.55,7.61-7.34,16.21.6,4.3,2,6.52,4.63,8.41,1.86,1.33,5.72,1.89,9.94,1.52,6.93-.61,10.12-6.83,9.96-8.76,0-1.35-.85-2.44-1.89-2.44s-1.89,1.09-1.89,2.44c0,1.01.48,1.88,1.17,2.25,0,0,0,0,0,0,.52.26.72.9.4,1.39-.27.43-.6.85-1.01,1.25-2.22,2.16-5.53,3.89-12.58,2.76-5.18-.83-6.76-6.26-7.19-8.31-.43-2.06-.44-8.04,5.04-13.08,6.54-6.01,20.27-10.18,23.66-10.59,3.38-.41,4.92-.53,5.23,3.42.24,3.04-.13,8.64-.39,11.63,0,0,0,0,0,0-2.51,14.34-7.52,27.74-7.52,27.74,0,0-.51,1.3-.66,1.63-.79,1.73-1.99,2.93-3.31,4.31-1.01,1.04-2.15,2.04-3.3,2.92-2.15,1.66-4.5,3.09-6.9,4.34-1.95,1.03-4.07,1.93-6.09,2.82-2.74,1.25-5.38,2.73-7.89,4.41-5.88,3.91-10.79,9.1-14.97,14.77-.97,1.27-1.88,2.59-2.96,3.76-1.6,1.65-3.31,3.19-5.31,4.32-5.97,3.35-13.11,3.67-19.81,3.35-.01,0-.02,0-.04,0-2.53-.14-4.96-1.01-7.01-2.48-2.78-1.99-5.43-4.43-7.86-7.41-.54-.66-1.05-1.32-1.54-1.97-.98-1.3.47-3.04,1.93-2.31h0c7.99,4.89,18,3.23,22.04.75,5.3-3.25,8.18-7.5,9.4-11.42.94-3,.49-6.15.23-7.46-.07-.35-.12-.7-.17-1.05-.21-1.71-1.66-3.03-3.42-3.03-1.95,0-3.52,1.62-3.45,3.59.07,1.76,1.49,3.21,3.25,3.3.33.02.66-.01.96-.08.88-.2,1.72.44,1.73,1.34.01,1.33-.26,3.13-1.26,5.35-2.35,5.22-11.09,13.87-24.49,8.93-3.92-1.44-6.89-4.3-9.13-7.61-6.11-9.05-6.29-20.85-.63-30.18.6-.99,1.13-1.8,1.52-2.41,3.32-5.3,11.34-11.12,20.81-9.28,8.31,1.62,18.94,13.18,19.29,13.56-.08-.11-5.11-7.27-8.92-11.08-13.64-13.63-27.05-7.91-30.83-6.49-7.93,2.98-22.84,16.07-23.41,37.7-.16,6.08.86,11.99,3.34,17.62h0s.46.96,1.13,2.35c0,0,0,0,0,0,1.32,2.74,3.48,7.12,4.56,8.96,1.63,2.76,5.23,11.78,5.55,16.2.31,4.42-.22,11.31-1.32,13.38-3.01,5.67-13.1,14.92-16.77,23.19-2.05,4.62-3.3,15.25,1,22.06,4.18,6.61,13.1,10.5,21.06,8.4,1.06-.28,2.29-1.1,2.29-1.1,1.61-1.05,3-2.17,3.75-2.79.06-.05.13-.1.2-.16.14-.11.27-.22.39-.35h0c.63-.66,1.01-1.57.95-2.57-.1-1.74-1.52-3.13-3.26-3.2-1.94-.08-3.54,1.48-3.54,3.4,0,1.05.48,1.99,1.22,2.61.59.5.62,1.41.04,1.93-.14.12-.31.26-.54.42-.89.63-3.67,2.47-9.43,1.25-4.92-1.03-10.41-4.25-13.14-9.39-2.73-5.14-2.44-14.5-.4-19.31,2.69-6.36,14.53-20.27,21.4-24.32,6.28-3.69,12.24-6.14,18.37-5.54.54.05,1.3.6,1.35,1.4.06,1.01-.57,1.74-2.09,3.24-1.52,1.5-3.42,5.04-3.83,7.42-.41,2.38-1.46,11.14,5.23,16.76,2.98,2.51,8.92,5.36,17.74,4.03,4.24-.64,8.25-5.15,9.55-8.29h0c.31-.54.47-1.17.45-1.83-.07-1.76-1.51-3.2-3.27-3.26-1.94-.07-3.54,1.48-3.54,3.4,0,1.7,1.24,3.1,2.86,3.36,0,0,0,0,0,0,.53.08.81.67.52,1.12-1.17,1.85-3.21,4.13-6.39,4.73-3.82.73-11.12.56-15.6-2.66-4.16-2.99-6.42-7.02-6.55-10.78-.13-3.76-.25-8.24,3.35-12.13,3.6-3.89,6.89-6.33,10.62-8.52,3.73-2.19,13.29-4.42,18.78-5.35,12.4-2.1,23.88-7.8,31.74-12.51,15.98-9.59,56.29-42.65,105.35-87.8,33.4-30.74,49.01-34.78,61.61-38.73,12.6-3.95,34.42-6.71,46.86,2.4,17.2,12.6,5.5,32.2,5.45,33.7,5.59-4.97,18.09-22.35,10.25-35.96-5.69-9.87-13.91-17.34-44.18-14.19-5.1.53-7.23.93-15.5,3.52Zm-50.82,23.3c-1.7,1.75-6.94,7.16-7.99,8.35-1.25,1.43-2.49,3.35-4.43,3.62-1.94.27-3.23-.31-3.43-1.69-.2-1.38-1.32-3.35-2.03-5.73-.48-1.6-2.05-3.58-2.64-4.36-.12-.16,0-.39.19-.39l20.09-.33c.28,0,.43.33.23.54Zm-177.91,132.46c-3.45.05-10.35.42-14.74,2.79-4.43,2.39-8.57.58-8.66-2.18-.09-2.76.06-7.7.06-9.42s.47-3.83,3.12-4.71c1.83-.61,3.51.48,4.56,1.29,1.05.81,1.36,1.31,4.46,2.6,3.1,1.28,11.28,3.6,12.69,3.89,1.41.28,2.35.96,2.35,2.73s-.39,2.98-3.84,3.02Zm35.84-17.74c-6.7.9-13.32,1.27-22.18,0-1.61-.23-1.63-2.54-.03-2.82.71-.12,1.33-.24,1.77-.36,4.59-1.21,8.81-3.35,12.15-7.05l.52-.55c.1-.1.18-.2.27-.3.43-.49.82-1.01,1.2-1.52,1.18-1.62,2.29-3.26,3.49-4.85,5.58-7.6,13.02-13.73,21.69-17.47,1.81-.79,3.69-1.66,5.43-2.58,1.78-.91,3.55-1.93,5.23-3.01,1.69-1.1,3.36-2.31,4.87-3.64.94-.84,1.85-1.72,2.67-2.68.3-.35.58-.7.85-1.07.19-.26.52-.39.84-.33.01,0,.03,0,.04,0,.41.08.69.48.64.9-.34,2.94-2.47,15.7-14.79,31.97-6.11,8.06-17.96,14.44-24.66,15.34Z"/>
      <g>
        <g>
          <path class="cls-23" d="m23.88,294.23c-9.92-4.53-14.35-6.69-14.35-14.06,0-6.59,4.62-10.8,11.89-10.71,10.43.12,14.02,2.86,15.63,15.63h2.37c-.3-3.05-.5-6.1-.5-9.54,0-2.55-.38-13.13-.09-15.4l-2.45.2c0,6.05-8.66,5.36-12.7,5.36-12,0-21.82,6.59-21.82,16.91,0,9.73,7.37,13.17,17.3,17.79,10.02,4.62,14.65,7.27,14.65,15.24s-5.8,13.66-14.94,13.66-15.33-5.9-16.22-15.53H0c.29,3.44.39,5.8.39,8.84s-.1,9.69-.39,12.54l2.02.4c.9-8.02,5.99-2.33,15.77-2.33,14.84,0,23.79-7.37,23.79-19.76,0-10.62-7.18-14.45-17.7-19.26Z"/>
          <path class="cls-30" d="m117.37,268.57v-2.16c-4.82.49-6.98.58-11.11.58s-6.39-.09-11.11-.58v2.16c5.9.59,7.47,4.23,7.47,15.82v11.4h-35.38v-11.4c0-11.59,1.47-15.23,7.47-15.82v-2.16c-4.91.49-7.08.58-11.3.58s-6.1-.09-10.92-.58v2.16c5.9.59,7.47,4.23,7.47,15.82v30.18c0,11.7-1.57,15.34-7.47,15.83v2.16c4.82-.49,6.69-.59,10.92-.59s6.39.1,11.3.59v-2.16c-5.99-.49-7.47-4.23-7.47-15.83v-14.65h35.38v14.65c0,11.7-1.57,15.34-7.47,15.83v2.16c4.82-.49,6.98-.59,11.11-.59s6.29.1,11.11.59v-2.16c-5.9-.49-7.47-4.13-7.47-15.83v-30.18c0-11.59,1.57-15.23,7.47-15.82Z"/>
          <path class="cls-26" d="m216.75,266.41c-5.4,0-10.71.58-14.65.58-3.24,0-7.37-.2-10.81-.58v2.16c5.9.59,7.47,4.23,7.47,15.82v30.18c0,11.7-1.57,15.34-7.47,15.83v2.16c3.54-.39,7.37-.59,11.01-.59,3.83,0,8.94.59,17.6.59,21.33,0,32.73-11.79,32.73-33.81s-10.81-32.34-35.88-32.34Zm-.39,62.42c-6.48,0-8.64-.89-9.43-4.04-.49-1.96-.88-7.08-.88-10.51v-42.76c2.45-.88,5.7-1.38,9.54-1.38,19.17,0,28.99,10.52,28.99,30.86s-8.35,27.83-28.21,27.83Z"/>
          <path class="cls-6" d="m296.08,265.72c-20.64,0-32.34,12.49-32.34,34.51s10.12,33.02,29.98,33.02c22.31,0,31.85-12.38,31.85-33.81s-10.03-33.72-29.49-33.72Zm-1.47,63.89c-14.16,0-22.12-10.71-22.12-29.88s8.45-30.37,22.6-30.37,21.82,10.71,21.82,30.96c0,18.98-7.86,29.29-22.31,29.29Z"/>
          <path class="cls-14" d="m417.57,266.99c-3.05,0-6.19-.2-10.42-.58v2.06c4.62.1,6.89,2.07,6.89,6,0,2.75-1.58,7.56-3.45,12.78l-10.96,30.6s-.02.08-.04.12l-1.29,3.58-13.47-35.68c-2.36-6.29-3.15-9.04-3.15-11.59,0-3.64,2.16-5.51,6.69-5.8v-2.06c-4.13.39-7.27.58-10.81.58-3.74,0-7.57-.2-11.5-.58v1.67c3.44,1.18,5.89,4.42,8.84,11.79l-15.04,42.36-14.15-38.33c-1.77-4.82-2.56-7.57-2.56-9.63,0-3.83,2.16-5.61,6.48-5.8v-2.06c-4.23.39-7.47.58-11.59.58s-7.08-.2-10.52-.58v1.67c3.74,1.77,6.39,5.01,11.4,18.38l17.2,46.1h5.4c1.47-5.4,3.25-10.81,5.11-16.12l10.81-29.98,12.76,33.81c2.8,7.43,2.04,15.76-2.18,22.49-4.9,7.81-10.79,15.01-17.51,21.33-17.56,16.6-40.52,26.87-64.4,30.14-1.38.19-2.75.35-4.14.5-5.38.55-10.81.74-16.21.58-43.36-.74-82.83-25.77-103.33-62.99-3.24-5.88-6.01-12.08-8.24-18.52,0-.03-14.19-36.38-14.19-36.38-1.47-3.73-2.75-7.56-3.83-11.4-4.13.69-7.18.98-10.72.98-1.18,0-1.77,0-3.34-.09v2.07c4.61.2,6.39,1.28,6.39,4.03,0,1.66-.1,2.45-2.46,8.45l-12.78,33.03c-3.74,9.63-6.69,15.33-10.62,16.41v1.67c4.52-.49,6.29-.59,10.03-.59s5.41.1,9.34.59v-2.16c-4.62-.39-6.59-2.36-6.59-6.69,0-1.96.39-4.03,1.38-6.68l2.75-7.18h25.65c1.89,4.83,4.01,9.55,6.36,14.17,1.45,2.84,3.04,5.87,4.26,7.96,2.83,4.85,5.93,9.52,9.34,13.99,1.61,2.01.94,4.14.58,4.74-1,1.65-5.89,1.63-14.55.49h0c-8.12-1.09-18.34-.82-30.97,2.29,0,0,21.95-3.54,37.07,1.06h0s4.75,1.85,4.75,1.85c.9.44,1.76.93,2.55,1.47,13.85,9.31,12.64,9.29,17.11,15.32,6.17,8.34,6.83,19.79,4.89,25.26-6.11,17.23-7.83,22.69-8.12,27.95-.27,5.07.62,16.95,15.06,29.5-4.19-3.76-14.56-14.69-13.4-29.72.78-10.15,7.43-24.63,7.8-25.41.38-.78,2.25-1.35,2.51.91.13,1.13,1.5,14.82,2.95,21.78,1.44,6.96,4.94,19.58,4.94,19.58l.29,1.37c.25.68-.89,1.25-1.37.72-.51-.57-.91-1.12-1.17-1.48-1-1.37-6.63-10.92-7.04-19.97,0,0-2.3,13.88,9.71,25.82,3.43,3.41,7.66,12.19,9.75,16.83.58,1.29-.55,2.69-1.93,2.39-.42-.09-.87-.19-1.33-.31-8.33-5.2-16.87-11.53-27.01-19.73-8.33-6.73-21.98-18.92-35.15-30.88-6.4-6.86-16.34-17.57-17.18-18.88-1.25-1.94-4.45-6.93-5.08-15.04-.63-8.08,2.97-15.92,12.22-17.67,12.1-2.3,20.92,7.25,23.81,12.16,2.97,5.03,5.64,10.32,3.51,17.55-.99,3.35-4.05,4.46-5.88,4.72-.56.08-.99-.54-.81-1.15.08-.28.13-.57.13-.87,0-1.63-1.26-3.13-2.8-3.13s-2.8,1.51-2.8,3.13c0,.82.24,1.69.71,2.18.46.49,1.06,1.03,3.99,1.01,2.42-.07,3.1-.16,4.93-.85,4.97-1.86,5.45-11.7,3.28-18.28-1.07-3.25-6.64-17.01-20.58-19.01-12.24-1.76-19.57,3.36-21.83,10.19-1.85,5.62-1.52,10.29-2.32,11.59-.8,1.3-2.51,1.88-5.26,1.44-.89-.14-2.05-.68-3.22-1.35-.26-.23-.48-.43-.66-.6-2.19-1.94-8.38-7.49-16.96-13.99,0,0,0,0,0,0-.76-.75-1.96-1.51-1.63-2.46.33-.96,2.1-.49,3.7,0,1.6.49,2.55,1.16,3.98,2.24,1.43,1.08,7.5,8.49,8.79,9.75,1.29,1.25,2.01,2.48,4.84,2.38,2.84-.09,3.4-1.61,3.51-3.09.14-1.92.66-4.86,1.43-7.15.54-1.61,2.36-3.24,3.39-4.06.23-.18.11-.56-.19-.56l-19.01-.48c-8.37.09-16.48-3.06-20.9-5.15-3.99-2.64-8.24-5.26-12.65-7.69-.25-.14-.13-.52.16-.48,12.1,1.63,26.92,1.68,32.44,1.63-20.28-.09-51.7-9.88-52.68-10.19-.01,0-.02,0-.02,0h0c-5.18-1.74-10.38-2.98-15.48-3.51-30.27-3.15-38.5,4.32-44.18,14.19-7.84,13.61,4.66,30.99,10.25,35.96-.05-1.5-11.75-21.1,5.45-33.7,12.44-9.11,34.27-6.35,46.86-2.4,12.6,3.95,28.2,7.99,61.61,38.73,49.06,45.15,89.37,78.21,105.35,87.8,7.86,4.71,19.34,10.41,31.74,12.51,5.49.93,15.05,3.16,18.78,5.35,3.73,2.19,7.02,4.64,10.62,8.52,3.6,3.89,3.48,8.37,3.35,12.13-.13,3.76-2.39,7.79-6.55,10.78-4.48,3.23-11.79,3.39-15.6,2.66-3.18-.61-5.22-2.89-6.39-4.73-.28-.45,0-1.04.52-1.12,0,0,0,0,0,0,1.62-.26,2.86-1.67,2.86-3.36,0-1.93-1.6-3.48-3.54-3.4-1.76.07-3.2,1.5-3.27,3.26-.03.67.14,1.3.45,1.83,0,0,0,0,0,0,1.3,3.13,5.31,7.65,9.55,8.29,8.82,1.33,14.76-1.52,17.74-4.03,6.68-5.63,5.63-14.38,5.23-16.76-.41-2.38-2.31-5.92-3.83-7.42-1.52-1.49-2.15-2.23-2.09-3.24.04-.8.81-1.35,1.35-1.4,6.13-.6,12.09,1.84,18.37,5.54,6.87,4.04,18.71,17.96,21.4,24.32,2.04,4.81,2.33,14.17-.4,19.31-2.73,5.14-8.21,8.36-13.14,9.39-5.77,1.21-8.54-.63-9.43-1.25-.23-.16-.4-.3-.54-.42-.57-.52-.55-1.44.04-1.93.75-.63,1.22-1.56,1.22-2.61,0-1.93-1.6-3.48-3.54-3.4-1.74.07-3.16,1.47-3.26,3.2-.06,1,.31,1.91.95,2.56h0c.12.13.25.24.39.35.07.05.13.1.2.16.75.63,2.14,1.74,3.75,2.79,0,0,1.22.82,2.29,1.1,7.96,2.1,16.88-1.79,21.06-8.4,4.3-6.81,3.05-17.44,1-22.06-3.67-8.27-13.76-17.52-16.77-23.19-1.1-2.07-1.63-8.96-1.32-13.38.31-4.42,3.92-13.44,5.55-16.2,1.08-1.83,3.23-6.22,4.56-8.96,0,0,0,0,0,0,.67-1.38,1.13-2.35,1.13-2.35h0c2.47-5.63,3.5-11.54,3.34-17.62-.56-21.62-15.83-35.19-23.41-37.7-5.09-1.68-17.11-6.39-30.83,6.49-1.3,1.22-3.62,4.11-5.56,6.62-1.36,1.76-2.88,3.41-4.55,4.88-1.92,1.69-4.03,3.16-6.31,4.34-4.08,2.11-8.78,3.02-13.32,2.25-5.96-.94-11.09-4.33-14.66-9.15-3.02-4.09-5.36-9.43-5.85-14.51-.28-5.17,1.44-10.75,5.52-14.12,3.05-2.55,7.15-3.46,11.06-3.4,2.62.03,5.28.53,7.63,1.73,5.1,2.55,7.88,8.22,8.4,13.72.15,2.29-.09,4.65-.89,6.81-.05.13-.1.27-.16.4-.42,1.01-1.77,1.17-2.45.31,0,0,0-.01-.01-.02-.7-.84-1.8-1.39-3.05-1.39-2.11,0-3.81,1.55-3.81,3.47s1.71,3.47,3.81,3.47c1.32,0,2.36-.43,3.18-1.32.82-.89,1.66-2.34,2.02-2.92,1.09-1.74,1.59-3.78,1.8-5.8.1-1.01.13-2.03.06-3.05-.14-1.69-.52-3.35-1.06-4.96-1.82-5.4-5.75-9.4-11.41-10.61-1.99-.44-4.04-.54-6.07-.41-8.39.49-13.85,5.84-15.1,14.06-.2,1.35-.28,2.71-.2,4.08.21,2.72,1.01,5.35,2,7.87,2.27,5.64,6.11,10.83,11.44,13.9,3.25,1.88,6.97,2.95,10.72,3.04,2.39.06,4.79-.3,7.07-1.02,5.42-1.71,10.4-5.47,14.15-9.86,2.08-2.44,4.43-4.64,7.05-6.5,2.91-2.06,6.06-3.81,8.93-4.37,9.46-1.85,17.49,3.98,20.81,9.28.38.62.92,1.42,1.52,2.41,5.66,9.33,5.47,21.14-.63,30.18-2.24,3.31-5.2,6.16-9.13,7.61-13.4,4.94-22.14-3.71-24.49-8.93-1-2.23-1.28-4.02-1.26-5.35,0-.9.85-1.54,1.73-1.34.31.07.63.1.96.08,1.76-.1,3.18-1.54,3.25-3.3.08-1.97-1.49-3.59-3.45-3.59-1.76,0-3.22,1.32-3.42,3.03-.04.35-.1.7-.17,1.05-.26,1.31-.7,4.45.23,7.46,1.22,3.92,4.1,8.17,9.4,11.42,4.04,2.48,14.05,4.14,22.04-.75h0c1.46-.72,2.9,1.01,1.93,2.31-.49.65-1,1.31-1.54,1.97-2.42,2.97-5.08,5.42-7.86,7.41-2.06,1.47-4.49,2.35-7.01,2.48-.01,0-.02,0-.04,0-6.7.32-13.84,0-19.81-3.35-2-1.12-3.72-2.67-5.31-4.32-1.07-1.17-1.98-2.49-2.96-3.76-4.17-5.66-9.09-10.85-14.97-14.77-2.5-1.69-5.14-3.16-7.89-4.41-2.02-.9-4.14-1.79-6.09-2.82-2.4-1.26-4.75-2.69-6.9-4.34-1.15-.89-2.29-1.88-3.3-2.92-1.32-1.38-2.51-2.58-3.31-4.31-.14-.33-.66-1.63-.66-1.63,0,0-8.54-22.86-8.92-40.82-.07-3.6-.58-6.83-1.37-9.71h0s0,0,0,0c-.03-.15-1.33-6.29-.48-7.56.33-.49,1.54-2.21,5.99.61h0c25.32,16.76,56.15,23.98,85.99,20.9h.02c1.39-.14,2.78-.31,4.17-.5,23.79-3.23,46.77-13.1,65.6-29.97,10.52-9.35,19.16-20.63,25.77-33.04,1.23-2.3,2.91-5.95,4.2-8.82,1.17-2.61,2.23-5.28,3.18-7.98.04-.1.07-.2.11-.3l9.63-26.64c3.45-9.54,8.06-20.15,12.49-20.74v-1.67c-3.54.39-6.68.58-9.73.58Zm-276.41,38.73l11.11-29,11.31,29h-22.42Zm-24.63,62.7l20.09.33c.2,0,.31.23.19.39-.59.78-2.16,2.76-2.64,4.36-.71,2.38-1.82,4.35-2.03,5.73-.2,1.38-1.49,1.96-3.43,1.69-1.94-.27-3.18-2.19-4.43-3.62-1.05-1.19-6.29-6.6-7.99-8.35-.2-.2-.05-.54.23-.54Zm176.19,127.24c1.41-.28,9.59-2.6,12.69-3.89,3.1-1.29,3.41-1.79,4.46-2.6,1.05-.81,2.73-1.9,4.56-1.29,2.65.88,3.12,2.91,3.12,4.71s.16,6.66.06,9.42c-.09,2.76-4.24,4.57-8.66,2.18-4.39-2.37-11.3-2.74-14.74-2.79-3.45-.05-3.84-1.25-3.84-3.02s.94-2.44,2.35-2.73Zm-73.16-60.2s.03,0,.04,0c.32-.06.64.07.84.33.27.37.55.73.85,1.07.82.96,1.72,1.85,2.67,2.68,1.51,1.33,3.18,2.54,4.87,3.64,1.68,1.07,3.45,2.1,5.23,3.01,1.74.91,3.63,1.78,5.43,2.58,8.68,3.74,16.11,9.87,21.69,17.47,1.21,1.59,2.31,3.23,3.49,4.85.38.51.77,1.03,1.2,1.52.09.1.17.19.27.3l.52.55c3.34,3.7,7.56,5.84,12.15,7.05.44.12,1.06.24,1.77.36,1.6.27,1.58,2.59-.03,2.82-8.86,1.27-15.48.9-22.18,0-6.7-.9-18.54-7.28-24.66-15.34-12.33-16.27-14.45-29.03-14.79-31.97-.05-.42.22-.81.64-.9Z"/>
        </g>
        <g>
          <path class="cls-19" d="m533.66,313.29c-5.41,10.81-13.27,16.32-23.5,16.32-13.57,0-21.52-11.11-21.52-29.98s8.46-30.27,22.31-30.27c9.14,0,14.54,5.21,16.9,16.31h2.46c-.39-4.52-.49-6.19-.49-9.43s.1-4.52.49-7.86c-6.29-1.87-11.8-2.66-17.69-2.66-20.94,0-32.64,12.68-32.64,35.29s10.22,32.24,30.57,32.24c7.57,0,14.65-1.18,20.93-3.44,1.09-5.99,2.17-9.93,4.53-15.62l-2.36-.89Z"/>
          <path class="cls-40" d="m629.21,268.57v-2.16c-4.62.49-7.37.58-11.21.58-4.03,0-6.59-.09-11.01-.58v2.16c5.9.59,7.47,4.23,7.47,15.82v30.18c0,11.7-1.57,15.34-7.47,15.83v2.16c4.72-.49,6.89-.59,11.01-.59s6.39.1,11.21.59v-2.16c-5.9-.49-7.47-4.13-7.47-15.83v-30.18c0-11.59,1.57-15.23,7.47-15.82Z"/>
          <path class="cls-42" d="m669.41,296.88c10.52-2.16,15.83-7.67,15.83-16.41,0-9.73-6.19-14.05-19.76-14.05-5.02,0-10.13.58-15.14.58s-6.88-.09-10.51-.58v2.16c6.39.39,7.47,5.8,7.47,15.82v30.18c0,9.93-1.37,15.83-7.47,15.83v2.16c4.23-.49,6.68-.59,10.91-.59s9.64.59,16.22.59c13.56,0,21.13-6.19,21.13-17.6,0-10.62-5.7-16.12-18.68-18.09Zm-14.84-25.46c2.07-.98,4.62-1.37,7.57-1.37,9.54,0,15.24,4.81,15.24,12.97s-6.29,12.87-19.07,12.87c-1.58,0-2.16,0-3.74-.19v-24.28Zm9.24,57.5c-5.9,0-8.16-1.57-8.85-5.8-.29-2.26-.39-3.83-.39-9.14v-14.75c1.67-.1,2.46-.1,3.34-.1,14.84,0,22.02,5.11,22.02,15.73,0,10.03-4.62,14.05-16.12,14.05Z"/>
          <path class="cls-12" d="m745.2,314.96c-4.42,10.32-10.32,13.87-23.29,13.87-3.15,0-4.72-.39-5.7-1.18-1.77-1.57-2.56-5.9-2.56-13.66v-14.26h7.76c7.37,0,11.6-.19,13.87,6.78h2.16c-.59-3.34-.88-5.89-.88-8.94,0-2.85.19-5.4.88-9.43h-2.07c-1.87,6.88-7.47,7.18-14.45,7.18h-7.27v-24.77h4.23c14.94,0,19.26,2.26,21.72,11.01l2.07-.69c-.99-4.92-1.77-9.93-1.77-14.75-5.89.5-9.73.59-17.3.59h-10.72c-4.22,0-9.24-.1-12.97-.29v2.16c5.9.59,7.48,4.23,7.48,15.82v30.18c0,11.7-1.58,15.34-7.48,15.83v2.16c3.64-.2,8.36-.29,11.7-.29h12.39c6.78,0,14.74.39,18.68.88,1.18-5.02,2.56-9.05,5.7-17l-2.16-1.18Z"/>
          <path class="cls-60" d="m451.19,294.23c-9.93-4.53-14.35-6.69-14.35-14.06,0-6.59,4.61-10.8,11.89-10.71,10.43.12,14.02,2.86,15.63,15.63h2.36c-.29-3.05-.49-6.1-.49-9.54,0-2.55-.39-13.13-.09-15.4l-2.45.2c0,6.05-8.65,5.36-12.7,5.36-12.01,0-21.82,6.59-21.82,16.91,0,9.73,7.37,13.17,17.3,17.79,10.02,4.62,14.65,7.27,14.65,15.24s-5.8,13.66-14.95,13.66-15.33-5.9-16.22-15.53h-2.65c.29,3.44.39,5.8.39,8.84s-.1,9.69-.39,12.54l2.02.4c.9-8.02,6-2.33,15.77-2.33,14.84,0,23.79-7.37,23.79-19.76,0-10.62-7.17-14.45-17.69-19.26Z"/>
        </g>
      </g>
      <path class="cls-10" d="m628.89,345.04c-15.62-2.85-20.57-7.93-26.52-12.71-1.47-1.18-3.98-3.8-5.17-5.02-1.19-1.22-5.06-6.21-6.92-9l-7.47-11.21c-2.56-3.83-4.91-7.67-8.75-8.94,10.52-2.16,15.53-7.47,15.53-16.41,0-10.62-6.29-15.33-20.74-15.33-4.32,0-11,.58-15.33.58-3.53,0-6.98-.2-10.03-.58v2.16c5.9.59,7.57,4.23,7.57,15.82v30.18c0,11.7-1.67,15.34-7.57,15.83v2.16c3.15-.39,6.88-.59,11.01-.59s8.26.2,11.21.59v-2.16c-5.9-.49-7.48-4.13-7.48-15.83v-15.82c1.97.49,5.31.59,7.67.59,2.94,1.47,7.17,6.78,9.92,11.1l10.35,15.98s0,.01.01.02c1.29,1.99,2.78,3.91,4.43,5.74,10.53,11.63,27.94,19.57,46.35,19.57,23.03,0,40.94-15.3,41.36-15.66-7.96,5.64-28.33,12.81-49.44,8.96Zm-63.48-49.04c-3.14,0-5.11-.29-7.18-.79v-23.98c1.29-.49,3.34-.88,6.89-.88,10.62,0,16.9,4.91,16.9,13.37,0,7.97-5.89,12.29-16.61,12.29Z"/>
      <polygon class="cls-29" points="210.62 382.11 210.62 382.11 210.62 382.11 210.62 382.11"/>
      <g>
        <path class="cls-20" d="m345.44,103.45c-.96,1.29-1.76,2.95-2.3,4.55-.21.63-1.02.8-1.47.32-7.89-8.48-18.64-18.84-24.37-23.29-.9-.7-.9-2.06,0-2.76,5.73-4.45,16.48-14.81,24.37-23.29.45-.49,1.26-.31,1.47.32.54,1.6,1.34,3.26,2.3,4.55.29.39.2.95-.2,1.23-3.72,2.62-15.68,13.76-16.71,18.57,1.03,4.81,12.99,15.95,16.71,18.57.4.28.49.84.2,1.23Z"/>
        <path class="cls-34" d="m395.85,103.45c.96,1.29,1.76,2.95,2.3,4.55.21.63,1.02.8,1.47.32,7.89-8.48,18.64-18.84,24.37-23.29.9-.7.9-2.06,0-2.76-5.73-4.45-16.48-14.81-24.37-23.29-.45-.49-1.26-.31-1.47.32-.54,1.6-1.34,3.26-2.3,4.55-.29.39-.2.95.2,1.23,3.72,2.62,15.68,13.76,16.71,18.57-1.03,4.81-12.99,15.95-16.71,18.57-.4.28-.49.84-.2,1.23Z"/>
      </g>
      <path class="cls-35" d="m381.15,50.09c-.77,9.88-3.46,22.12-24.29,60.67-.11.21-.09.47.06.66.88,1.11,3.89,5.01,5.69,8.43.27.51,1.04.38,1.13-.19,3.18-20.52,15.79-48.77,25.77-62.01.21-.27.14-.66-.14-.86-1.22-.84-4.36-3.21-7.13-7.01-.33-.45-1.04-.25-1.09.3Z"/>
    </g>
  </g>
</svg>