<?xml version="1.0" encoding="UTF-8"?>
<svg id="Layer_1" data-name="Layer 1" xmlns="http://www.w3.org/2000/svg" xmlns:xlink="http://www.w3.org/1999/xlink" viewBox="0 0 378.39 378.39">
  <defs>
    <style>
      .cls-1 {
        fill: url(#linear-gradient-2);
      }

      .cls-2 {
        fill: url(#linear-gradient-5);
      }

      .cls-3 {
        filter: url(#filter-innershadow-fav);
      }

      .cls-4 {
        fill: url(#linear-gradient-3);
      }

      .cls-5 {
        fill: url(#linear-gradient);
      }

      .cls-6 {
        fill: url(#linear-gradient-4);
      }
    </style>
    <filter id="filter-innershadow-fav" x="-20%" y="-20%" width="140%" height="140%">
      <feFlood x="0%" y="0%" width="100%" height="100%" flood-color="#b07e00" flood-opacity=".5" result="flood1"/>
      <feComposite x="0%" y="0%" width="100%" height="100%" in="flood1" in2="SourceAlpha" operator="out" result="composite2"/>
      <feGaussianBlur x="0%" y="0%" width="100%" height="100%" in="composite2" result="blur2" stdDeviation="8"/>
      <feComponentTransfer x="0%" y="0%" width="100%" height="100%" in="blur2" result="componentTransfer1">
        <feFuncR slope="1" type="linear"/>
        <feFuncG slope="1" type="linear"/>
        <feFuncB slope="1" type="linear"/>
        <feFuncA slope="6" type="linear"/>
      </feComponentTransfer>
      <feComposite x="0%" y="0%" width="100%" height="100%" in="componentTransfer1" in2="SourceGraphic" operator="atop" result="composite3"/>
    </filter>
    <linearGradient id="linear-gradient" x1="81.14" y1="25.99" x2="81.14" y2="417.29" gradientUnits="userSpaceOnUse">
      <stop offset="0" stop-color="#fdfbc2"/>
      <stop offset=".04" stop-color="#eadc93"/>
      <stop offset=".09" stop-color="#d8c066"/>
      <stop offset=".13" stop-color="#caa841"/>
      <stop offset=".18" stop-color="#be9524"/>
      <stop offset=".22" stop-color="#b68810"/>
      <stop offset=".27" stop-color="#b18004"/>
      <stop offset=".31" stop-color="#b07e00"/>
      <stop offset=".35" stop-color="#c5a239"/>
      <stop offset=".41" stop-color="#e3d486"/>
      <stop offset=".45" stop-color="#f5f3b6"/>
      <stop offset=".47" stop-color="#fdffc9"/>
      <stop offset=".57" stop-color="#fdf9bd"/>
      <stop offset=".61" stop-color="#e6d484"/>
      <stop offset=".66" stop-color="#ceaf4c"/>
      <stop offset=".7" stop-color="#be9422"/>
      <stop offset=".74" stop-color="#b38409"/>
      <stop offset=".76" stop-color="#b07e00"/>
      <stop offset=".92" stop-color="#fdfbc2"/>
    </linearGradient>
    <linearGradient id="linear-gradient-2" x1="297.25" y1="25.99" x2="297.25" y2="417.29" xlink:href="#linear-gradient"/>
    <linearGradient id="linear-gradient-3" x1="108.5" y1="25.99" x2="108.5" y2="417.29" xlink:href="#linear-gradient"/>
    <linearGradient id="linear-gradient-4" x1="269.88" y1="25.99" x2="269.88" y2="417.29" xlink:href="#linear-gradient"/>
    <linearGradient id="linear-gradient-5" x1="194.4" y1="25.99" x2="194.4" y2="417.29" xlink:href="#linear-gradient"/>
  </defs>
  <g class="cls-3">
    <path class="cls-5" d="m144.98,35.88s-10.75,59.3-54.57,106.22c-48.93,52.38-36.7,78.09-23,97.54,20.99,29.8,53.94,61.58,67.2,93.4.91,2.17,1.08,4.58-.19,6.56h0c-2.36,3.66-7.63,3.92-10.31.48-11.64-14.92-20.22-27.46-59.43-50.99-39.2-23.52-61.16-72.45-37.85-113.12,32.55-56.78,64.71-49.03,118.14-140.09Z"/>
    <path class="cls-1" d="m233.41,35.88s10.75,59.3,54.57,106.22c48.93,52.38,36.7,78.09,23,97.54-20.99,29.8-53.94,61.58-67.2,93.4-.91,2.17-1.08,4.58.19,6.56h0c2.36,3.66,7.63,3.92,10.31.48,11.64-14.92,20.22-27.46,59.43-50.99,39.2-23.52,61.16-72.45,37.85-113.12-32.55-56.78-64.71-49.03-118.14-140.09Z"/>
    <g>
      <path class="cls-4" d="m137.74,247.07c-1.96,2.64-3.59,6.01-4.7,9.28-.43,1.28-2.07,1.64-3,.65-16.11-17.31-38.05-38.47-49.74-47.55-1.84-1.43-1.84-4.2,0-5.62,11.69-9.08,33.64-30.24,49.74-47.55.92-.99,2.56-.63,3,.65,1.11,3.27,2.74,6.65,4.7,9.28.6.8.41,1.94-.41,2.52-7.6,5.36-32,28.09-34.11,37.92,2.1,9.83,26.51,32.56,34.11,37.92.82.58,1.01,1.71.41,2.52Z"/>
      <path class="cls-6" d="m240.65,247.07c1.96,2.64,3.59,6.01,4.7,9.28.43,1.28,2.07,1.64,3,.65,16.11-17.31,38.05-38.47,49.74-47.55,1.84-1.43,1.84-4.2,0-5.62-11.69-9.08-33.64-30.24-49.74-47.55-.92-.99-2.56-.63-3,.65-1.11,3.27-2.74,6.65-4.7,9.28-.6.8-.41,1.94.41,2.52,7.6,5.36,32,28.09,34.11,37.92-2.1,9.83-26.51,32.56-34.11,37.92-.82.58-1.01,1.71-.41,2.52Z"/>
    </g>
    <path class="cls-2" d="m210.62,138.15c-1.58,20.18-7.07,45.17-49.58,123.86-.23.43-.19.96.11,1.35,1.79,2.27,7.93,10.23,11.62,17.21.55,1.05,2.12.79,2.3-.38,6.49-41.9,32.24-99.56,52.6-126.6.42-.56.29-1.35-.28-1.75-2.49-1.72-8.89-6.56-14.55-14.32-.67-.92-2.13-.52-2.22.62Z"/>
  </g>
</svg>