<?xml version="1.0" encoding="UTF-8"?>
<svg id="Layer_1" data-name="Layer 1" xmlns="http://www.w3.org/2000/svg" xmlns:xlink="http://www.w3.org/1999/xlink" viewBox="0 0 378.39 378.39">
  <defs>
    <style>
      .cls-1 {
        fill: url(#linear-gradient-2);
      }

      .cls-2 {
        filter: url(#filter-innershadow-fav);
      }

      .cls-3 {
        fill: url(#linear-gradient-3);
      }

      .cls-4 {
        fill: url(#linear-gradient);
      }
    </style>
    <filter id="filter-innershadow-fav" x="-20%" y="-20%" width="140%" height="140%">
      <feFlood x="0%" y="0%" width="100%" height="100%" flood-color="#b07e00" flood-opacity=".5" result="flood1"/>
      <feComposite x="0%" y="0%" width="100%" height="100%" in="flood1" in2="SourceAlpha" operator="out" result="composite2"/>
      <feGaussianBlur x="0%" y="0%" width="100%" height="100%" in="composite2" result="blur2" stdDeviation="8"/>
      <feComponentTransfer x="0%" y="0%" width="100%" height="100%" in="blur2" result="componentTransfer1">
        <feFuncR slope="1" type="linear"/>
        <feFuncG slope="1" type="linear"/>
        <feFuncB slope="1" type="linear"/>
        <feFuncA slope="6" type="linear"/>
      </feComponentTransfer>
      <feComposite x="0%" y="0%" width="100%" height="100%" in="componentTransfer1" in2="SourceGraphic" operator="atop" result="composite3"/>
    </filter>
    <linearGradient id="linear-gradient" x1="58.42" y1="-107.61" x2="58.42" y2="526.57" gradientUnits="userSpaceOnUse">
      <stop offset="0" stop-color="#fdfbc2"/>
      <stop offset=".04" stop-color="#eadc93"/>
      <stop offset=".09" stop-color="#d8c066"/>
      <stop offset=".13" stop-color="#caa841"/>
      <stop offset=".18" stop-color="#be9524"/>
      <stop offset=".22" stop-color="#b68810"/>
      <stop offset=".27" stop-color="#b18004"/>
      <stop offset=".31" stop-color="#b07e00"/>
      <stop offset=".35" stop-color="#c5a239"/>
      <stop offset=".41" stop-color="#e3d486"/>
      <stop offset=".45" stop-color="#f5f3b6"/>
      <stop offset=".47" stop-color="#fdffc9"/>
      <stop offset=".57" stop-color="#fdf9bd"/>
      <stop offset=".61" stop-color="#e6d484"/>
      <stop offset=".66" stop-color="#ceaf4c"/>
      <stop offset=".7" stop-color="#be9422"/>
      <stop offset=".74" stop-color="#b38409"/>
      <stop offset=".76" stop-color="#b07e00"/>
      <stop offset=".92" stop-color="#fdfbc2"/>
    </linearGradient>
    <linearGradient id="linear-gradient-2" x1="319.96" y1="-107.61" x2="319.96" y2="526.57" xlink:href="#linear-gradient"/>
    <linearGradient id="linear-gradient-3" x1="197.64" y1="-107.61" x2="197.64" y2="526.57" xlink:href="#linear-gradient"/>
  </defs>
  <g class="cls-2">
    <g>
      <path class="cls-4" d="m105.8,250.7c-3.18,4.28-5.83,9.75-7.62,15.05-.7,2.08-3.36,2.65-4.86,1.05-26.11-28.06-61.67-62.35-80.62-77.07-2.98-2.31-2.98-6.8,0-9.12,18.95-14.72,54.51-49.01,80.62-77.07,1.49-1.61,4.15-1.03,4.86,1.05,1.79,5.3,4.45,10.77,7.62,15.05.97,1.3.66,3.14-.67,4.08-12.32,8.68-51.87,45.52-55.28,61.45,3.41,15.93,42.96,52.77,55.28,61.45,1.33.93,1.63,2.77.67,4.08Z"/>
      <path class="cls-1" d="m272.58,250.7c3.18,4.28,5.83,9.75,7.62,15.05.7,2.08,3.36,2.65,4.86,1.05,26.11-28.06,61.67-62.35,80.62-77.07,2.98-2.31,2.98-6.8,0-9.12-18.95-14.72-54.51-49.01-80.62-77.07-1.49-1.61-4.15-1.03-4.86,1.05-1.79,5.3-4.45,10.77-7.62,15.05-.97,1.3-.66,3.14.67,4.08,12.32,8.68,51.87,45.52,55.28,61.45-3.41,15.93-42.96,52.77-55.28,61.45-1.33.93-1.63,2.77-.67,4.08Z"/>
    </g>
    <path class="cls-3" d="m223.92,74.17c-2.56,32.7-11.45,73.2-80.36,200.75-.38.7-.31,1.56.19,2.18,2.9,3.67,12.85,16.58,18.83,27.9.89,1.69,3.44,1.27,3.73-.62,10.52-67.91,52.25-161.35,85.25-205.17.68-.91.48-2.19-.46-2.84-4.04-2.79-14.42-10.63-23.58-23.2-1.09-1.5-3.45-.84-3.6,1.01Z"/>
  </g>
</svg>